<svg width="64" height="64" viewBox="0 0 64 64" fill="none" xmlns="http://www.w3.org/2000/svg">
<path fill-rule="evenodd" clip-rule="evenodd" d="M41.8942 11.8469C43.0676 10.6734 44.9701 10.6734 46.1436 11.8469L58.1625 23.8658C59.0218 24.7251 59.2789 26.0175 58.8138 27.1403C58.3488 28.2631 57.2531 28.9952 56.0378 28.9952H19.981C18.3216 28.9952 16.9763 27.6499 16.9763 25.9905C16.9763 24.331 18.3216 22.9857 19.981 22.9857H48.7838L41.8942 16.0962C40.7208 14.9228 40.7208 13.0203 41.8942 11.8469Z" fill="#FF8780"/>
<path fill-rule="evenodd" clip-rule="evenodd" d="M5.18608 36.8597C5.65116 35.7369 6.74679 35.0049 7.9621 35.0049H44.0189C45.6783 35.0049 47.0236 36.3501 47.0236 38.0096C47.0236 39.6691 45.6783 41.0143 44.0189 41.0143H15.2162L22.1057 47.9038C23.2791 49.0773 23.2791 50.9798 22.1057 52.1532C20.9323 53.3266 19.0298 53.3266 17.8564 52.1532L5.83743 40.1343C4.97808 39.2749 4.72101 37.9825 5.18608 36.8597Z" fill="#76DB9B"/>
</svg>
