<svg width="64" height="64" viewBox="0 0 64 64" fill="none" xmlns="http://www.w3.org/2000/svg">
<path d="M26.2807 30.3168C27.3431 30.3168 28.2043 29.4556 28.2043 28.3933C28.2043 27.3309 27.3431 26.4697 26.2807 26.4697C25.2183 26.4697 24.3571 27.3309 24.3571 28.3933C24.3571 29.4556 25.2183 30.3168 26.2807 30.3168Z" fill="#65D2E4"/>
<path d="M39.3611 28.3933C39.3611 29.4556 38.4999 30.3168 37.4375 30.3168C36.3751 30.3168 35.5139 29.4556 35.5139 28.3933C35.5139 27.3309 36.3751 26.4697 37.4375 26.4697C38.4999 26.4697 39.3611 27.3309 39.3611 28.3933Z" fill="#65D2E4"/>
<path fill-rule="evenodd" clip-rule="evenodd" d="M31.8591 8.86876C29.634 8.87554 26.7584 9.14224 23.8946 10.8253C23.448 11.0877 23.0064 11.3817 22.5713 11.7104C21.887 11.2441 21.0119 10.884 19.9753 10.7892C18.1732 10.6245 16.1205 11.2787 13.9538 13.0987C11.4525 15.1998 9.10561 17.7364 7.50964 20.3832C5.93563 22.9936 4.95022 25.9544 5.62427 28.7732C6.21336 31.2366 7.99069 32.5349 9.72228 33.1394C10.4702 33.4005 11.2362 33.5452 11.9531 33.6118C11.6806 34.8309 11.4657 36.0435 11.3287 37.2352C10.6942 42.7555 11.6995 48.2429 16.7832 51.7625C19.2202 53.4498 22.5616 54.2615 25.3888 54.6737C28.1909 55.0823 30.7202 55.1288 31.8591 55.1309C31.8737 55.1309 31.8886 55.131 31.9038 55.131C31.9189 55.131 31.9338 55.131 31.9485 55.131C33.0874 55.1288 35.6166 55.0823 38.4188 54.6737C41.246 54.2615 44.5873 53.4498 47.0244 51.7625C52.1081 48.2429 53.1134 42.7555 52.4789 37.2352C52.3425 36.0487 52.1289 34.8414 51.858 33.6276C52.6282 33.5699 53.4637 33.4235 54.2777 33.1394C56.0093 32.5349 57.7866 31.2366 58.3757 28.7732C59.0498 25.9544 58.0644 22.9936 56.4903 20.3832C54.8944 17.7364 52.5474 15.1998 50.0462 13.0987C47.8795 11.2787 45.8268 10.6245 44.0247 10.7892C42.9367 10.8887 42.0266 11.2805 41.3283 11.7805C40.8634 11.4234 40.3911 11.1062 39.913 10.8253C37.0492 9.14224 34.1735 8.87554 31.9485 8.86876C31.9336 8.86876 31.9187 8.86863 31.9038 8.86866C31.8889 8.86863 31.874 8.86876 31.8591 8.86876ZM31.9038 12.1388C29.9204 12.1422 27.7064 12.3781 25.5514 13.6446C23.398 14.9101 21.1051 17.3242 19.235 22.0678C17.25 27.1031 15.15 32.6274 14.5774 37.6086C14.0097 42.5478 14.9761 46.5341 18.6446 49.0739C20.4394 50.3165 23.1574 51.0437 25.8606 51.4378C27.4964 51.6763 29.0405 51.7816 30.224 51.8272V45.2445C28.7022 44.6032 27.3536 43.4615 26.4416 42.2812C25.8357 41.4972 25.3309 40.581 25.1236 39.6315C24.9133 38.6682 24.9855 37.4883 25.8281 36.5404C26.5301 35.7506 27.5943 35.3077 28.5364 35.0491C29.5365 34.7745 30.6731 34.6346 31.7792 34.6212C32.8828 34.6078 34.0281 34.7195 35.0388 34.9937C35.9927 35.2524 37.0955 35.7279 37.7838 36.6456C38.4839 37.5791 38.5947 38.6693 38.4194 39.6304C38.2476 40.5716 37.795 41.4696 37.2335 42.2424C36.343 43.4684 35.0088 44.609 33.4942 45.2664V51.8306C34.6888 51.7868 36.2697 51.6824 37.947 51.4378C40.6501 51.0437 43.3681 50.3165 45.1629 49.0739C48.8314 46.5341 49.7978 42.5478 49.2301 37.6086C48.6576 32.6274 46.5576 27.1031 44.5725 22.0678C42.7025 17.3242 40.4096 14.9101 38.2561 13.6446C36.1012 12.3781 33.8872 12.1422 31.9038 12.1388ZM43.7873 14.1575C45.2028 15.8485 46.5005 18.0421 47.6148 20.8685C48.7722 23.8045 50.0407 27.0737 51.0147 30.3878C51.6786 30.3908 52.4748 30.3051 53.2 30.052C54.2145 29.6978 54.938 29.0886 55.1953 28.0126C55.5792 26.4071 55.0736 24.3666 53.6899 22.0718C52.3282 19.8135 50.2507 17.5412 47.9429 15.6027C46.2625 14.1911 45.0451 13.9797 44.3224 14.0458C44.1253 14.0638 43.9468 14.1038 43.7873 14.1575ZM12.7933 30.3862C13.7672 27.0727 15.0355 23.8041 16.1928 20.8685C17.3172 18.0165 18.6283 15.8088 20.0587 14.1117C19.9406 14.0811 19.8135 14.0582 19.6775 14.0458C18.9549 13.9797 17.7375 14.1911 16.0571 15.6027C13.7493 17.5412 11.6718 19.8135 10.31 22.0718C8.92634 24.3666 8.42077 26.4071 8.8047 28.0126C9.06199 29.0886 9.7855 29.6978 10.8 30.052C11.4565 30.2812 12.1713 30.3731 12.7933 30.3862ZM28.3184 38.934C28.2897 38.8024 28.2895 38.7278 28.2938 38.6914C28.3944 38.5997 28.7187 38.3901 29.402 38.2025C30.088 38.0142 30.9412 37.9017 31.8188 37.891C32.6989 37.8804 33.5313 37.973 34.1827 38.1497C34.8909 38.3418 35.1346 38.5636 35.1677 38.6077C35.1889 38.636 35.2584 38.7361 35.2024 39.0434C35.1427 39.3705 34.9521 39.8191 34.5878 40.3205C33.9227 41.2361 32.9028 42.0265 31.9059 42.3794C30.9058 42.0807 29.7934 41.2707 29.0292 40.2818C28.6132 39.7434 28.3907 39.2649 28.3184 38.934ZM28.2954 38.6803C28.2977 38.6676 28.3004 38.6624 28.3012 38.663C28.3019 38.6636 28.3008 38.6699 28.2954 38.6803Z" fill="#65D2E4"/>
</svg>
