<svg width="64" height="64" viewBox="0 0 64 64" fill="none" xmlns="http://www.w3.org/2000/svg">
<path fill-rule="evenodd" clip-rule="evenodd" d="M32 3.67529C33.1686 3.67529 34.1159 4.62264 34.1159 5.79124V13.0049H39.6943V5.79124C39.6943 4.62264 40.6417 3.67529 41.8103 3.67529C42.9789 3.67529 43.9262 4.62264 43.9262 5.79124V13.0049H44.6957C46.3793 13.0049 47.9939 13.6737 49.1843 14.8642C50.3748 16.0546 51.0436 17.6692 51.0436 19.3528V20.1221L58.1608 20.1221C59.3294 20.1221 60.2768 21.0695 60.2768 22.2381C60.2768 23.4067 59.3294 24.354 58.1608 24.354L51.0436 24.354V29.9326H58.1608C59.3294 29.9326 60.2768 30.88 60.2768 32.0486C60.2768 33.2172 59.3294 34.1645 58.1608 34.1645L51.0436 34.1645V39.7427H58.1608C59.3294 39.7427 60.2768 40.69 60.2768 41.8586C60.2768 43.0272 59.3294 43.9746 58.1608 43.9746L51.0436 43.9746V44.7442C51.0436 46.4278 50.3748 48.0424 49.1843 49.2328C47.9939 50.4233 46.3793 51.092 44.6957 51.092H43.9262V58.209C43.9262 59.3776 42.9789 60.3249 41.8103 60.3249C40.6417 60.3249 39.6943 59.3776 39.6943 58.209V51.092H34.1159V58.209C34.1159 59.3776 33.1685 60.3249 31.9999 60.3249C30.8313 60.3249 29.884 59.3776 29.884 58.209V51.092H24.3056L24.3056 58.209C24.3056 59.3776 23.3583 60.3249 22.1897 60.3249C21.0211 60.3249 20.0737 59.3776 20.0737 58.209L20.0737 51.092H19.3043C17.6207 51.092 16.0061 50.4233 14.8157 49.2328C13.6252 48.0424 12.9564 46.4278 12.9564 44.7442V43.9746H5.8391C4.67049 43.9746 3.72314 43.0272 3.72314 41.8586C3.72314 40.69 4.67049 39.7427 5.8391 39.7427H12.9564V34.1646H5.8391C4.67049 34.1646 3.72314 33.2172 3.72314 32.0486C3.72314 30.88 4.67049 29.9327 5.8391 29.9327H12.9564V24.3541H5.8391C4.67049 24.3541 3.72314 23.4067 3.72314 22.2381C3.72314 21.0695 4.67049 20.1222 5.8391 20.1222H12.9564V19.3528C12.9564 17.6692 13.6252 16.0546 14.8157 14.8642C16.0061 13.6737 17.6207 13.0049 19.3043 13.0049H20.0737V5.79124C20.0737 4.62264 21.021 3.67529 22.1896 3.67529C23.3582 3.67529 24.3056 4.62264 24.3056 5.79124V13.0049H29.884V5.79124C29.884 4.62264 30.8314 3.67529 32 3.67529ZM19.3043 46.8601C18.7431 46.8601 18.2049 46.6372 17.8081 46.2404C17.4113 45.8436 17.1883 45.3054 17.1883 44.7442V19.3528C17.1883 18.7916 17.4113 18.2534 17.8081 17.8566C18.2049 17.4598 18.7431 17.2368 19.3043 17.2368H44.6957C45.2569 17.2368 45.7951 17.4598 46.1919 17.8566C46.5887 18.2534 46.8117 18.7916 46.8117 19.3528V44.7442C46.8117 45.3054 46.5887 45.8436 46.1919 46.2404C45.7951 46.6372 45.2569 46.8601 44.6957 46.8601H19.3043Z" fill="#9FA9B7"/>
</svg>
