<svg width="64" height="64" viewBox="0 0 64 64" fill="none" xmlns="http://www.w3.org/2000/svg">
<path d="M47.1964 26.5177C47.1964 29.0674 45.1294 31.1343 42.5798 31.1343C40.0301 31.1343 37.9631 29.0674 37.9631 26.5177C37.9631 23.968 40.0301 21.9011 42.5798 21.9011C45.1294 21.9011 47.1964 23.968 47.1964 26.5177Z" fill="#6DD3C8"/>
<path fill-rule="evenodd" clip-rule="evenodd" d="M6.41626 13.0525H57.5838V50.9473H6.41626V13.0525ZM10.2634 38.0361V47.1001H14.7314C16.7637 43.9429 19.5309 40.692 23.5441 38.6219C25.1897 37.7731 27.0106 37.1402 29.0297 36.7836C25.5547 35.848 21.9272 35.5779 18.2672 35.9946C15.7734 36.3707 12.7093 36.9975 10.2634 38.0361ZM34.5479 47.1001H19.4354C21.0122 45.0734 22.9147 43.2754 25.3077 42.0411C28.6114 40.337 33.0756 39.5919 39.3481 41.1576C39.5152 41.2129 39.6831 41.2658 39.8516 41.3165C37.5894 42.9664 35.8824 45.055 34.5479 47.1001ZM39.3089 47.1001H53.7366V40.5826C52.1021 41.1467 50.4182 41.5747 48.7002 41.8615C48.4975 41.973 48.2712 42.0495 48.0281 42.0819C44.1173 42.6041 41.3851 44.5996 39.3089 47.1001ZM10.2634 33.9195C12.8505 33.0228 15.6266 32.501 17.7288 32.1851L17.7617 32.1802L17.7948 32.1764C24.7784 31.3734 31.6789 32.7846 37.803 36.2819C40.763 37.9723 44.307 38.6254 47.6259 38.1368C49.7329 37.82 51.7816 37.2626 53.7366 36.4776V16.8997H10.2634V33.9195Z" fill="#6DD3C8"/>
</svg>
