<svg width="64" height="64" viewBox="0 0 64 64" fill="none" xmlns="http://www.w3.org/2000/svg">
<path d="M15.621 26.7761H13.5883C12.4584 26.7761 11.541 27.6935 11.541 28.8235C11.541 29.9534 12.4584 30.8708 13.5883 30.8708H15.621V32.9036C15.621 34.0335 16.5384 34.9509 17.6684 34.9509C18.7984 34.9509 19.7158 34.0335 19.7158 32.9036V30.8708H21.7484C22.8785 30.8708 23.7958 29.9534 23.7958 28.8235C23.7958 27.6935 22.8785 26.7761 21.7484 26.7761H19.7158V24.7434C19.7158 23.6134 18.7984 22.696 17.6684 22.696C16.5384 22.696 15.621 23.6134 15.621 24.7434V26.7761Z" fill="#9EA0F6"/>
<path fill-rule="evenodd" clip-rule="evenodd" d="M25.4313 42.0497H38.5688C39.4428 45.0743 41.4546 47.647 44.1866 49.2243C46.988 50.8417 50.3173 51.28 53.4418 50.4427L53.4488 50.4408C56.5734 49.6036 59.2375 47.5594 60.8549 44.758C62.4723 41.9566 62.9106 38.6273 62.0733 35.5027C60.9459 31.2951 59.6314 26.3894 58.504 22.1818C57.6668 19.0572 55.6226 16.3931 52.8212 14.7757C50.0197 13.1583 46.6905 12.72 43.5659 13.5572L43.5589 13.5591C41.7612 14.0407 40.116 14.9219 38.7349 16.117L25.2643 16.1162C23.8849 14.9223 22.2393 14.0409 20.4412 13.5591L20.4343 13.5572C17.3097 12.72 13.9804 13.1583 11.179 14.7757C8.37752 16.3931 6.33335 19.0572 5.49612 22.1818C4.36865 26.3894 3.0542 31.2951 1.92674 35.5027C1.08951 38.6273 1.52781 41.9566 3.14521 44.758C4.76267 47.5594 7.42668 49.6036 10.5513 50.4408L10.5583 50.4427C13.6829 51.28 17.0121 50.8417 19.8136 49.2243C22.5455 47.647 24.5573 45.0743 25.4313 42.0497ZM42.124 39.5084C41.6581 37.9098 40.1672 37.9548 40.1367 37.955C31.9353 37.9806 23.8634 37.955 23.8634 37.955C22.8025 37.9804 22.0944 38.6833 21.8761 39.5084C21.7371 40.0339 21.6559 40.3293 21.5491 40.729C21.377 41.3733 21.3764 41.3732 21.5412 40.7584C20.985 42.834 19.6271 44.6037 17.7662 45.6781C15.9053 46.7525 13.6937 47.0436 11.6181 46.4875L11.6111 46.4856C9.53545 45.9295 7.76579 44.5716 6.6914 42.7106C5.617 40.8497 5.32584 38.6381 5.88201 36.5625C7.00941 32.3549 8.32386 27.4492 9.45133 23.2416C10.0075 21.1659 11.3654 19.3963 13.2264 18.3218C15.0873 17.2474 17.2988 16.9563 19.3744 17.5124L19.3814 17.5143C20.7671 17.8856 22.0164 18.6142 23.0135 19.6113C23.3975 19.9953 23.9182 20.211 24.4612 20.211H39.5389C40.0819 20.211 40.6027 19.9953 40.9866 19.6113C41.9837 18.6142 43.233 17.8856 44.6187 17.5143L44.6257 17.5124C46.7013 16.9563 48.9129 17.2474 50.7738 18.3218C52.6347 19.3963 53.9926 21.1659 54.5488 23.2416C55.6762 27.4492 56.9907 32.3549 58.1181 36.5625C58.6743 38.6381 58.3831 40.8497 57.3087 42.7106C56.2343 44.5716 54.4646 45.9295 52.389 46.4856L52.382 46.4875C50.3064 47.0436 48.0949 46.7525 46.2339 45.6781C44.3913 44.6142 43.0419 42.8688 42.4756 40.8197L42.124 39.5084ZM25.4192 42.0497L25.4127 42.0647L25.3698 42.1627C25.3874 42.1257 25.4039 42.0881 25.4192 42.0497Z" fill="#9EA0F6"/>
<path fill-rule="evenodd" clip-rule="evenodd" d="M46.3817 22.3746C47.5776 22.3746 48.5486 23.3455 48.5486 24.5414C48.5486 25.7373 47.5776 26.7082 46.3817 26.7082C45.1858 26.7082 44.2149 25.7373 44.2149 24.5414C44.2149 23.3455 45.1858 22.3746 46.3817 22.3746Z" fill="#9EA0F6"/>
<path fill-rule="evenodd" clip-rule="evenodd" d="M46.3817 31.0309C47.5776 31.0309 48.5486 32.0018 48.5486 33.1977C48.5486 34.3937 47.5776 35.3645 46.3817 35.3645C45.1858 35.3645 44.2149 34.3937 44.2149 33.1977C44.2149 32.0018 45.1858 31.0309 46.3817 31.0309Z" fill="#9EA0F6"/>
<path fill-rule="evenodd" clip-rule="evenodd" d="M50.6136 26.6065C51.8095 26.6065 52.7804 27.5774 52.7804 28.7733C52.7804 29.9693 51.8095 30.9402 50.6136 30.9402C49.4177 30.9402 48.4467 29.9693 48.4467 28.7733C48.4467 27.5774 49.4177 26.6065 50.6136 26.6065Z" fill="#9EA0F6"/>
<path fill-rule="evenodd" clip-rule="evenodd" d="M41.9574 26.6065C43.1533 26.6065 44.1242 27.5774 44.1242 28.7733C44.1242 29.9693 43.1533 30.9402 41.9574 30.9402C40.7615 30.9402 39.7905 29.9693 39.7905 28.7733C39.7905 27.5774 40.7615 26.6065 41.9574 26.6065Z" fill="#9EA0F6"/>
</svg>
