<svg width="64" height="64" viewBox="0 0 64 64" fill="none" xmlns="http://www.w3.org/2000/svg">
<path fill-rule="evenodd" clip-rule="evenodd" d="M6.51245 31.9998C6.51245 17.9234 17.9236 6.51221 32 6.51221C46.0764 6.51221 57.4876 17.9234 57.4876 31.9998C57.4876 46.0762 46.0765 57.4874 32 57.4874C17.9236 57.4874 6.51245 46.0762 6.51245 31.9998ZM9.80365 31.023C10.0271 25.8586 12.0135 21.1514 15.1762 17.4881L29.6385 31.9504L24.4384 37.1505C20.1662 33.4114 14.9736 31.3466 9.80365 31.023ZM22.1202 39.4687C18.504 36.3645 14.181 34.6412 9.901 34.3079C10.3775 38.9241 12.2673 43.121 15.1305 46.4584L22.1202 39.4687ZM17.4355 48.778L24.4423 41.7712C27.6178 45.4072 29.3825 49.7757 29.7269 54.1024C25.0479 53.6269 20.7983 51.6996 17.4355 48.778ZM26.7592 39.4543L31.9508 34.2627L46.5118 48.8237C42.8568 51.9792 38.1626 53.9638 33.012 54.1947C32.6766 48.9792 30.5697 43.7429 26.7592 39.4543ZM34.2631 31.9504L48.8241 46.5114C52.0427 42.7831 54.0431 37.9736 54.2067 32.7014C49.0837 32.31 43.9573 30.2107 39.7452 26.4683L34.2631 31.9504ZM42.0621 24.1514C45.607 27.2474 49.8481 29.0022 54.0679 29.4073C53.5388 24.8544 51.6332 20.7214 48.7782 17.4353L42.0621 24.1514ZM46.4587 15.1302L39.7596 21.8293C36.734 18.3049 35.0203 14.1091 34.6267 9.93596C39.1174 10.4649 43.1982 12.3331 46.4587 15.1302ZM37.4414 24.1475L31.9508 29.6381L17.4885 15.1758C21.2248 11.9501 26.0472 9.94802 31.3329 9.79214C31.7123 14.8695 33.7695 19.9523 37.4414 24.1475Z" fill="#FBA86F"/>
</svg>
