<svg width="64" height="64" viewBox="0 0 64 64" fill="none" xmlns="http://www.w3.org/2000/svg">
<path d="M28.3155 39.2096C28.3155 40.2719 27.4543 41.1332 26.3919 41.1332C25.3296 41.1332 24.4683 40.2719 24.4683 39.2096C24.4683 38.1472 25.3296 37.286 26.3919 37.286C27.4543 37.286 28.3155 38.1472 28.3155 39.2096Z" fill="#F2D066"/>
<path d="M39.7403 39.2096C39.7403 40.2719 38.879 41.1332 37.8167 41.1332C36.7543 41.1332 35.8931 40.2719 35.8931 39.2096C35.8931 38.1472 36.7543 37.286 37.8167 37.286C38.879 37.286 39.7403 38.1472 39.7403 39.2096Z" fill="#F2D066"/>
<path d="M30.1581 45.8565C30.0065 44.9532 29.1514 44.3438 28.2481 44.4953C27.3448 44.6469 26.7354 45.502 26.8869 46.4053C27.2868 48.7887 29.3567 50.6046 31.8541 50.6046C34.3514 50.6046 36.4214 48.7887 36.8213 46.4053C36.9728 45.502 36.3634 44.6469 35.4601 44.4953C34.5568 44.3438 33.7016 44.9532 33.5501 45.8565C33.4138 46.6687 32.7046 47.2877 31.8541 47.2877C31.0035 47.2877 30.2943 46.6687 30.1581 45.8565Z" fill="#F2D066"/>
<path fill-rule="evenodd" clip-rule="evenodd" d="M18.2034 15.367C15.4685 17.5558 12.9564 20.8965 12.008 25.4173C11.0519 29.9749 11.7223 35.5526 15.0705 42.1197V43.0907C15.0705 52.3009 22.5369 59.7672 31.747 59.7672C40.9572 59.7672 48.4235 52.3009 48.4235 43.0907V41.7398C55.8546 29.5092 51.5939 19.9546 45.8438 17.2114V9.54206C45.8438 8.11198 44.4028 7.13158 43.0726 7.65666L37.5314 9.84397L33.2917 4.93477C32.464 3.97642 30.97 4.00315 30.1771 4.99049L26.3363 9.77347L20.9746 7.65704C19.6444 7.13196 18.2034 8.11236 18.2034 9.54244V15.367ZM35.7439 12.8488L31.7936 8.27485L28.3273 12.5915C27.7711 13.284 26.8288 13.5338 26.0026 13.2077L21.5203 11.4384V20.1326H42.5269V11.438L37.792 13.307C37.5618 13.3979 37.3235 13.4337 37.0916 13.4207C36.5959 13.4481 36.0934 13.2536 35.7439 12.8488ZM18.2034 21.6071C18.2034 21.91 18.2846 22.1939 18.4264 22.4383C18.6786 23.0326 19.2675 23.4495 19.9538 23.4495H43.8168C44.9363 23.4495 45.8438 22.5419 45.8438 21.4225V21.1911C48.3226 23.3887 50.4531 28.1088 48.0408 34.9447C47.8106 34.1559 47.4426 33.3709 46.8545 32.6471C46.4761 32.1814 45.3723 31.1018 44.2926 30.0682C43.1646 28.9883 41.9221 27.8265 41.161 27.1275L40.2399 26.2816L39.1733 26.9346C37.2758 28.0963 34.1451 28.702 30.8713 28.9767C28.1443 29.2056 25.5533 29.1909 23.8791 29.1814C23.5852 29.1797 23.3195 29.1782 23.0863 29.1782C21.0239 29.1782 19.0609 30.2403 17.6745 31.455C16.9627 32.0787 16.3375 32.7977 15.8791 33.5487C15.7615 33.7414 15.6494 33.9453 15.5482 34.1581C14.7732 31.0282 14.7821 28.3489 15.2542 26.0983C15.7719 23.6306 16.8632 21.5973 18.2034 19.9878V21.6071ZM18.3874 43.0907C18.3874 50.469 24.3687 56.4503 31.747 56.4503C39.1254 56.4503 45.1067 50.469 45.1067 43.0907L45.1067 38.8524C45.1067 36.8924 45.0462 35.6814 44.2802 34.7387C44.067 34.4762 43.1591 33.5749 41.9989 32.4641C41.2485 31.7458 40.4463 30.9902 39.7753 30.3649C37.2575 31.5326 34.0121 32.0417 31.1486 32.282C28.2581 32.5246 25.4995 32.5082 23.8354 32.4983H23.8337C23.5515 32.4966 23.3008 32.4951 23.0863 32.4951C22.1083 32.4951 20.8926 33.0454 19.8604 33.9498C19.3629 34.3856 18.9689 34.8529 18.7104 35.2766C18.4371 35.7244 18.3874 36.0022 18.3874 36.0884L18.3874 43.0907Z" fill="#F2D066"/>
</svg>
