<svg width="70" height="70" viewBox="0 0 70 70" fill="none" xmlns="http://www.w3.org/2000/svg">
<g id="037-digital economy 2" clip-path="url(#clip0_2699_107456)">
<g id="Group">
<path id="Vector" d="M21.8295 30.9712C22.3128 31.3716 22.7962 31.3716 23.2795 30.9712L38.7078 15.543C38.7961 15.4547 38.9397 15.4547 39.028 15.543L41.6876 18.2027C42.5753 19.0904 44.02 19.0904 44.9078 18.2027L59.6095 3.50082V4.20383C59.6095 4.77012 60.0686 5.22922 60.6349 5.22922C61.2012 5.22922 61.6603 4.77012 61.6603 4.20383V1.0258C61.6604 0.469492 61.1912 0 60.6349 0H57.4564C56.8902 0 56.431 0.459102 56.431 1.02539C56.431 1.59168 56.8902 2.05078 57.4564 2.05078H58.1595L43.4578 16.7524C43.3694 16.8407 43.2258 16.8407 43.1376 16.7524L40.478 14.0928C39.5995 13.2143 38.1362 13.2143 37.2576 14.0928L21.8295 29.5211C21.429 29.9214 21.429 30.5709 21.8295 30.9712Z" fill="#65D2E4"/>
<path id="Vector_2" d="M18.8787 40.3539C12.9409 40.3539 8.11017 45.1842 8.11017 51.1214C8.11017 53.2176 8.71542 55.2516 9.86058 57.0036C10.1705 57.4775 10.8056 57.6108 11.2799 57.3009C11.7539 56.991 11.8869 56.3556 11.5771 55.8816C10.6505 54.4641 10.1608 52.818 10.1608 51.1214C10.1608 46.315 14.0715 42.4047 18.8785 42.4047C23.6856 42.4047 27.5964 46.315 27.5964 51.1214C27.5964 55.9278 23.6857 59.8381 18.8785 59.8381C17.1853 59.8381 15.5418 59.3503 14.1259 58.4271C13.6514 58.1177 13.0162 58.2516 12.7071 58.7261C12.3978 59.2006 12.5317 59.8359 13.0061 60.145C14.7559 61.2858 16.7866 61.8887 18.8787 61.8887C24.8165 61.8887 29.6473 57.0584 29.6473 51.1213C29.6473 45.1842 24.8167 40.3539 18.8787 40.3539Z" fill="#65D2E4"/>
<path id="Vector_3" d="M18.8787 57.4652C22.377 57.4652 25.2232 54.6194 25.2232 51.1214C25.2232 47.6234 22.3772 44.7775 18.8787 44.7775C15.3803 44.7775 12.5342 47.6233 12.5342 51.1214C12.5342 54.6193 15.3805 57.4652 18.8787 57.4652ZM18.8787 46.8282C21.2462 46.8282 23.1725 48.7541 23.1725 51.1214C23.1725 53.4886 21.2464 55.4145 18.8787 55.4145C16.5111 55.4145 14.585 53.4886 14.585 51.1214C14.585 48.7541 16.5113 46.8282 18.8787 46.8282Z" fill="#65D2E4"/>
<path id="Vector_4" d="M3.32897 31.5613C4.7354 31.5613 6.06307 30.5946 6.49428 29.2578H11.0738V32.8125C11.0738 33.3788 11.5329 33.8379 12.0992 33.8379C12.6655 33.8379 13.1246 33.3788 13.1246 32.8125V23.5446H17.5115C18.8307 23.5446 19.9041 22.4712 19.9041 21.152V6.49346C20.6761 6.2423 21.3454 5.7143 21.7615 4.99324C22.3542 3.96662 22.3542 2.69104 21.7615 1.66441C21.1689 0.637793 20.0642 0 18.8787 0C17.6932 0 16.5886 0.637793 15.996 1.66441C15.4033 2.69104 15.4033 3.96662 15.996 4.99324C16.4123 5.7143 17.0814 6.2423 17.8534 6.49346V21.152C17.8534 21.3404 17.7 21.4938 17.5116 21.4938H13.1247V17.8411C13.8966 17.59 14.5659 17.062 14.9822 16.3409C15.5749 15.3143 15.5749 14.0387 14.9822 13.0119C14.3894 11.9854 13.2847 11.3477 12.0993 11.3477C10.914 11.3477 9.8093 11.9854 9.21649 13.0121C8.62395 14.0387 8.62395 15.3141 9.21649 16.3409C9.6328 17.062 10.302 17.59 11.074 17.8411V27.207H6.49428C6.0628 25.8696 4.73595 24.9036 3.32897 24.9036C2.14348 24.9036 1.03893 25.5414 0.446257 26.568C-0.146555 27.5946 -0.146555 28.8702 0.446257 29.8967C1.03893 30.9235 2.14348 31.5613 3.32897 31.5613ZM17.7719 2.6898C17.9996 2.29564 18.4235 2.05078 18.8787 2.05078C19.3338 2.05078 19.7579 2.29564 19.9856 2.6898C20.2132 3.08396 20.2132 3.57369 19.9856 3.96799C19.7581 4.36215 19.334 4.60687 18.8788 4.60687C18.4237 4.60687 17.9996 4.36201 17.7721 3.96785C17.5446 3.57369 17.5444 3.08396 17.7719 2.6898ZM10.9925 14.0375C11.22 13.6433 11.6441 13.3984 12.0993 13.3984C12.5546 13.3984 12.9786 13.6433 13.2062 14.0375C13.4339 14.4316 13.4339 14.9213 13.2062 15.3155C12.9786 15.7097 12.5545 15.9545 12.0993 15.9545C11.6442 15.9545 11.2201 15.7097 10.9926 15.3156C10.765 14.9213 10.765 14.4316 10.9925 14.0375ZM2.22223 27.5934C2.44973 27.1992 2.87384 26.9544 3.32897 26.9544C3.78411 26.9544 4.20821 27.1992 4.43585 27.5934C4.66348 27.9876 4.66348 28.4773 4.43585 28.8714C4.20835 29.2656 3.78425 29.5105 3.32911 29.5105C2.87397 29.5105 2.44987 29.2656 2.22237 28.8713C1.9946 28.4773 1.9946 27.9876 2.22223 27.5934Z" fill="#65D2E4"/>
<path id="Vector_5" d="M67.7719 59.4859H67.5855C67.5902 59.4273 67.5946 59.3685 67.5946 59.3086V54.6179C67.5946 53.3894 66.595 52.3898 65.3665 52.3898H61.6602V23.6523C61.6602 23.086 61.2011 22.6269 60.6348 22.6269C60.0685 22.6269 59.6094 23.086 59.6094 23.6523V52.3898H37.7574L37.7567 49.479C37.7566 48.3505 36.9551 47.3611 35.8513 47.1265L33.1035 46.5424C32.8689 45.8133 32.5776 45.1018 32.2329 44.4166L33.7857 42.0232C34.4 41.0765 34.2666 39.8104 33.4684 39.0126L31.0661 36.6112C30.2681 35.8137 29.0018 35.6805 28.0553 36.2951L25.699 37.8254C25.3227 37.632 24.9379 37.4565 24.5471 37.296L38.7077 23.1355C38.8145 23.0472 38.9212 23.0472 39.0279 23.1355L41.6875 25.7951C42.5754 26.6829 44.0201 26.6829 44.9079 25.7951L59.223 11.4798C59.4232 11.361 59.552 11.4144 59.6095 11.6399V19.5507C59.6095 20.117 60.0686 20.5761 60.6349 20.5761C61.2012 20.5761 61.6603 20.117 61.6603 19.5507V11.6399C61.6603 9.6809 59.1757 8.62735 57.773 10.0298L43.4577 24.3449C43.3694 24.4332 43.2259 24.4332 43.1376 24.3449L40.478 21.6853C39.5901 20.7975 38.1454 20.7975 37.2576 21.6853L23.3041 35.639L22.9863 34.1471C22.7513 33.0435 21.7619 32.2426 20.6337 32.2426C20.6336 32.2426 20.6334 32.2426 20.6333 32.2426L17.2365 32.2433C16.108 32.2434 15.1186 33.0449 14.884 34.1487L14.2999 36.8965C13.5708 37.1311 12.8592 37.4226 12.174 37.7671L9.78057 36.2143C8.83393 35.6001 7.56778 35.7334 6.77003 36.5316L4.36857 38.934C3.57095 39.7322 3.43792 40.9983 4.05247 41.9447L5.58276 44.301C5.23181 44.9838 4.93403 45.6928 4.69314 46.4198L1.90435 47.0138C0.800624 47.2488 -0.000273367 48.2385 6.99949e-08 49.3669L0.000683662 52.7638C0.000957099 53.8922 0.802401 54.8815 1.90613 55.1161L4.6539 55.7002C4.88851 56.4293 5.17985 57.1408 5.52452 57.826L3.97167 60.2194C3.3574 61.1661 3.49083 62.4322 4.289 63.23L6.69141 65.6314C7.48958 66.4292 8.75586 66.5621 9.70209 65.9475L12.0584 64.4172C12.7413 64.7682 13.4504 65.066 14.1773 65.3069L14.7713 68.0955C15.0064 69.1991 15.9958 70.0001 17.124 70H17.1244L20.5212 69.9993C21.6496 69.9992 22.6391 69.1977 22.8737 68.0939L23.4577 65.3461C24.187 65.1115 24.8983 64.8202 25.5836 64.4756L27.977 66.0285C28.9235 66.6427 30.1898 66.5093 30.9875 65.7111L32.1545 64.5437V66.4046C32.1545 67.6331 33.1541 68.6327 34.3826 68.6327H67.772C69.0006 68.6327 70.0001 67.6331 70.0001 66.4046V61.7139C70 60.4854 69.0005 59.4859 67.7719 59.4859ZM65.5438 54.6179V59.3085C65.5438 59.4062 65.4642 59.4858 65.3665 59.4858H54.8785V54.4405H65.3665C65.4644 54.4406 65.5438 54.5201 65.5438 54.6179ZM52.8278 54.4406V59.4859H44.5157V54.4406H52.8278ZM31.9771 59.4859C31.8793 59.4859 31.7998 59.4064 31.7998 59.3086V54.6179C31.7998 54.5202 31.8793 54.4406 31.9771 54.4406H42.4649V59.4859H31.9771ZM31.9384 61.859L29.5371 64.2612C29.4194 64.3788 29.2329 64.3986 29.093 64.3081L26.1944 62.4274C25.876 62.2209 25.4694 62.2071 25.1377 62.3916C24.2443 62.8889 23.2926 63.2784 22.3089 63.5492C21.9396 63.6509 21.6577 63.9499 21.5781 64.3247L20.8676 67.6676C20.833 67.8303 20.6871 67.9484 20.5206 67.9485L17.1239 67.9492C16.9575 67.9492 16.8115 67.8311 16.7769 67.6683L16.0574 64.2909C15.9784 63.9197 15.7008 63.6225 15.3358 63.5185C14.3556 63.2389 13.4073 62.8405 12.5173 62.3343C12.1841 62.1448 11.7731 62.1572 11.452 62.3656L8.5851 64.2276C8.44551 64.3181 8.25875 64.2987 8.14104 64.181L5.73876 61.7795C5.62104 61.662 5.60136 61.4752 5.69186 61.3356L7.57256 58.437C7.77928 58.1186 7.79295 57.712 7.60838 57.3803C7.111 56.4867 6.72149 55.5349 6.45079 54.5515C6.34907 54.1822 6.05007 53.9003 5.67532 53.8207L2.33242 53.1102C2.16972 53.0756 2.05146 52.9296 2.05146 52.7632L2.05078 49.3666C2.05078 49.2002 2.1689 49.0542 2.3316 49.0196L5.70909 48.3002C6.08028 48.2212 6.37751 47.9435 6.48155 47.5786C6.76114 46.5983 7.15954 45.65 7.66567 44.76C7.85502 44.4269 7.84299 44.016 7.63436 43.6947L5.77253 40.8278C5.68188 40.6882 5.70157 40.5015 5.81915 40.3838L8.22061 37.9815C8.33819 37.8638 8.52481 37.8441 8.66453 37.9346L11.5631 39.8153C11.8815 40.022 12.2881 40.0357 12.6199 39.8511C13.5134 39.3537 14.4651 38.9642 15.4486 38.6935C15.8179 38.5918 16.0998 38.2928 16.1794 37.9181L16.8899 34.5752C16.9245 34.4125 17.0704 34.2942 17.2369 34.2942L20.6337 34.2935C20.8001 34.2935 20.9461 34.4116 20.9807 34.5745L21.7 37.9518C21.779 38.323 22.0567 38.6202 22.4216 38.7243C23.4018 39.0039 24.3501 39.4023 25.2401 39.9084C25.5732 40.0978 25.9842 40.0856 26.3055 39.8771L29.1722 38.0153C29.3118 37.9245 29.4985 37.944 29.6164 38.0617L32.0187 40.4632C32.1364 40.5808 32.1561 40.7675 32.0655 40.9071L30.1848 43.8057C29.9781 44.1241 29.9645 44.5307 30.149 44.8624C30.6464 45.756 31.0359 46.7078 31.3066 47.6912C31.4083 48.0605 31.7073 48.3424 32.0821 48.422L35.425 49.1325C35.5877 49.1671 35.7059 49.313 35.7059 49.4795L35.7066 52.39H31.9771C30.7485 52.39 29.749 53.3895 29.749 54.6181V59.3085C29.749 60.537 30.7485 61.5366 31.9771 61.5366H32.034C32.0571 61.6509 32.0241 61.7732 31.9384 61.859ZM34.2052 66.4046V61.7139C34.2052 61.6162 34.2848 61.5366 34.3825 61.5366H44.8703V66.5819H34.3825C34.2848 66.5819 34.2052 66.5023 34.2052 66.4046ZM46.9212 66.5819V61.5367H55.2333V66.5819H46.9212ZM67.9492 66.4046C67.9492 66.5023 67.8697 66.5819 67.7719 66.5819H57.2841V61.5367H67.7719C67.8697 61.5367 67.9492 61.6163 67.9492 61.714V66.4046Z" fill="#65D2E4"/>
</g>
</g>
<defs>
<clipPath id="clip0_2699_107456">
<rect width="70" height="70" fill="white"/>
</clipPath>
</defs>
</svg>
