<svg width="70" height="70" viewBox="0 0 70 70" fill="none" xmlns="http://www.w3.org/2000/svg">
<g id="019-profit 1" clip-path="url(#clip0_2699_107463)">
<g id="Group">
<path id="Vector" d="M63.5838 30.2263H59.6536V27.5858C59.6267 25.8719 58.2328 24.4457 56.5135 24.4457C50.1352 24.4457 43.757 24.4457 37.3788 24.4457C35.6595 24.4457 34.2656 25.8719 34.2386 27.5858V30.2263H6.41618C4.34228 30.2263 2.65515 31.9134 2.65515 33.9873V66.2392C2.65515 68.3131 4.34228 70.0002 6.41618 70.0002H63.5838C65.6576 70.0002 67.3449 68.3131 67.3449 66.2392V60.9528C67.3449 60.3863 66.8857 59.9271 66.3191 59.9271C65.7525 59.9271 65.2934 60.3863 65.2934 60.9528V66.2392C65.2934 67.1819 64.5265 67.9487 63.5838 67.9487H59.4587C59.5846 67.6094 59.6536 67.2426 59.6536 66.8601V39.4452H65.2934V56.9262C65.2934 57.4927 65.7525 57.9519 66.3191 57.9519C66.8857 57.9519 67.3449 57.4927 67.3449 56.9262V33.9873C67.3449 31.9134 65.6576 30.2263 63.5838 30.2263ZM51.9944 67.9486H42.9883C45.6875 65.9893 47.4475 62.8116 47.4475 59.2289C47.4475 58.0034 47.2389 56.8264 46.8601 55.7279C51.5191 55.7714 55.4536 51.8941 55.4536 47.2227C55.4536 42.5317 51.6372 38.7152 46.946 38.7152C42.2548 38.7152 38.4384 42.5316 38.4384 47.2227C38.4384 47.6968 38.4792 48.1648 38.5556 48.6254C37.8123 48.494 37.0449 48.4408 36.29 48.4674V32.2538C39.213 31.7953 41.517 29.4411 41.9047 26.4971H51.9699C52.3578 29.45 54.6692 31.8058 57.602 32.2571V62.3655C54.733 62.8087 52.4504 65.0809 51.9944 67.9486ZM27.9547 59.229C27.9547 54.4209 31.8667 50.5093 36.6754 50.5093C41.484 50.5093 45.3962 54.4209 45.3962 59.229C45.3962 64.0371 41.4842 67.9487 36.6754 67.9487C31.8669 67.9486 27.9547 64.037 27.9547 59.229ZM13.0817 62.8559C12.7048 62.8559 12.398 62.5493 12.398 62.1722V60.4981C12.398 60.1212 12.7046 59.8144 13.0815 59.8144H25.9196C25.9768 60.8761 26.1892 61.8969 26.5332 62.8558H13.0817V62.8559ZM12.398 46.8938V45.2197C12.398 44.8428 12.7046 44.536 13.0815 44.536H29.1859C29.5628 44.536 29.8695 44.8426 29.8695 45.2197V46.8938C29.8695 47.2707 29.5629 47.5775 29.1859 47.5775H13.0815C12.7046 47.5775 12.398 47.2709 12.398 46.8938ZM28.1391 52.6704H13.0815C12.7046 52.6704 12.398 52.3637 12.398 51.9867V50.3125C12.398 49.9356 12.7046 49.629 13.0815 49.629H29.1859C29.5628 49.629 29.8694 49.9356 29.8694 50.3125V50.8874C29.2263 51.4129 28.6462 52.012 28.1391 52.6704ZM26.0057 57.7631H13.0817C12.7048 57.7631 12.398 57.4564 12.398 57.0794V55.4052C12.398 55.0283 12.7046 54.7217 13.0815 54.7217H26.8953C26.4567 55.6697 26.1523 56.6912 26.0057 57.7631ZM40.49 47.2229C40.49 43.663 43.3863 40.7668 46.9461 40.7668C50.506 40.7668 53.4022 43.6629 53.4022 47.2229C53.4022 50.7829 50.506 53.679 46.9461 53.679C46.576 53.679 46.2073 53.6466 45.8452 53.5846C44.668 51.6798 42.9151 50.167 40.8301 49.2921C40.6053 48.6283 40.49 47.9345 40.49 47.2229ZM56.5135 26.4971C57.0745 26.4971 57.6021 27.0195 57.6021 27.5858V30.1702C55.8026 29.7651 54.3935 28.3172 54.0452 26.4971H56.5135ZM37.3788 26.4971H39.8297C39.4819 28.3093 38.0801 29.7546 36.2901 30.1657V27.5858C36.2901 27.0333 36.8236 26.4971 37.3788 26.4971ZM6.41618 32.2778H34.2386V37.3937H4.70662V33.9873C4.70662 33.0446 5.4736 32.2778 6.41618 32.2778ZM4.70662 66.2391V39.4452H34.2386V48.7392C33.3925 48.9357 32.5846 49.2317 31.8275 49.6149C31.7285 49.2404 31.5537 48.8969 31.3178 48.6032C31.6943 48.1346 31.921 47.5404 31.921 46.8938V45.2197C31.921 43.7116 30.6941 42.4845 29.1859 42.4845H13.0815C11.5734 42.4845 10.3465 43.7114 10.3465 45.2197V46.8938C10.3465 47.5404 10.5733 48.1344 10.9498 48.6032C10.5733 49.0719 10.3465 49.6659 10.3465 50.3125V51.9867C10.3465 52.6333 10.5733 53.2273 10.9498 53.6961C10.5733 54.1648 10.3465 54.7588 10.3465 55.4054V57.0795C10.3465 57.7261 10.5733 58.3201 10.9498 58.7889C10.5733 59.2576 10.3465 59.8516 10.3465 60.4984V62.1725C10.3465 62.8191 10.5733 63.4131 10.9498 63.8819C10.5733 64.3506 10.3465 64.9446 10.3465 65.5913V67.2655C10.3465 67.5019 10.3799 67.7301 10.4365 67.9492H6.41618C5.4736 67.9486 4.70662 67.1818 4.70662 66.2391ZM13.0817 67.9486C12.7048 67.9486 12.398 67.642 12.398 67.2649V65.5908C12.398 65.2139 12.7046 64.9071 13.0815 64.9071H27.5275C28.1458 65.8995 28.9194 66.7853 29.8165 67.5279C29.7132 67.7746 29.4695 67.9485 29.1859 67.9485H13.0817V67.9486ZM54.0833 67.9486C54.4873 66.2135 55.8641 64.8449 57.6021 64.4521V66.86C57.6021 67.4602 57.1138 67.9486 56.5135 67.9486H54.0833ZM59.6536 37.3937V32.2778H63.5838C64.5265 32.2778 65.2934 33.0446 65.2934 33.9873V37.3937H59.6536Z" fill="#65D2E4"/>
<path id="Vector_2" d="M6.15358 35.2276C6.36105 35.7456 6.98032 35.9956 7.49251 35.7829C8.00879 35.5686 8.26085 34.9596 8.04668 34.4436C7.83798 33.9408 7.25659 33.6875 6.74646 33.8748C6.20952 34.0721 5.92983 34.6975 6.15358 35.2276Z" fill="#65D2E4"/>
<path id="Vector_3" d="M9.43459 35.2277C9.64767 35.7436 10.2594 35.9972 10.7749 35.7829C11.2921 35.5678 11.5417 34.9603 11.3301 34.4426C11.1191 33.9261 10.5027 33.6758 9.98985 33.8887C9.47015 34.1046 9.22684 34.7088 9.43459 35.2277Z" fill="#65D2E4"/>
<path id="Vector_4" d="M15.2733 16.5403H17.2589V25.0192C17.2589 26.5273 18.4859 27.7542 19.994 27.7542H22.2734C23.7815 27.7542 25.0085 26.5273 25.0085 25.0192V16.5403H26.9941C28.8219 16.5403 29.839 14.2642 28.5849 12.9061L23.5617 7.4671C22.2838 6.08359 19.9871 6.07962 18.7057 7.4671L17.4945 8.77854C17.1102 9.19471 17.1359 9.84366 17.5521 10.228C17.9683 10.6124 18.6171 10.5866 19.0015 10.1704L20.2127 8.85895C20.8267 8.32161 21.4406 8.32161 22.0545 8.85895L27.0778 14.2979C27.1332 14.3981 27.1053 14.4617 26.9941 14.4889H23.9828C23.4163 14.4889 22.957 14.9481 22.957 15.5146V25.0192C22.957 25.3961 22.6503 25.7028 22.2734 25.7028H19.994C19.6171 25.7028 19.3103 25.3961 19.3103 25.0192V15.5146C19.3103 14.9481 18.8511 14.4889 18.2846 14.4889H15.2733C15.1621 14.4617 15.1342 14.3981 15.1896 14.2979L16.2385 13.1623C16.6228 12.7461 16.5971 12.0971 16.1809 11.7128C15.7647 11.3285 15.1159 11.3544 14.7315 11.7704L13.6826 12.9061C12.4424 14.249 13.425 16.5403 15.2733 16.5403Z" fill="#65D2E4"/>
<path id="Vector_5" d="M36.6754 52.8828C33.1758 52.8828 30.3288 55.7296 30.3288 59.2288C30.3288 62.7281 33.1758 65.5748 36.6754 65.5748C40.1749 65.5748 43.0219 62.7281 43.0219 59.2288C43.0219 55.7296 40.1749 52.8828 36.6754 52.8828ZM36.6754 63.5235C34.307 63.5235 32.3803 61.597 32.3803 59.229C32.3803 56.8609 34.307 54.9344 36.6754 54.9344C39.0437 54.9344 40.9705 56.8609 40.9705 59.229C40.9705 61.597 39.0439 63.5235 36.6754 63.5235Z" fill="#65D2E4"/>
<path id="Vector_6" d="M41.0856 10.1124H43.0713V18.5913C43.0713 20.0994 44.2983 21.3263 45.8065 21.3263H48.0858C49.5939 21.3263 50.8209 20.0994 50.8209 18.5913V10.1124H52.8065C54.6343 10.1124 55.6515 7.83624 54.3973 6.47817L49.3741 1.03917C48.0962 -0.344476 45.7995 -0.348305 44.518 1.03917L39.4949 6.47817C38.2549 7.82106 39.2371 10.1124 41.0856 10.1124ZM41.002 7.86988L46.0251 2.43103C46.6391 1.89354 47.253 1.89354 47.8671 2.43103L52.8903 7.86988C52.9456 7.97 52.9177 8.03359 52.8066 8.06081H49.7953C49.2287 8.06081 48.7696 8.52006 48.7696 9.08654V18.5911C48.7696 18.9681 48.463 19.2747 48.0859 19.2747H45.8066C45.4295 19.2747 45.1229 18.9681 45.1229 18.5911V9.08668C45.1229 8.5202 44.6638 8.06095 44.0972 8.06095H41.0857C40.9744 8.03373 40.9467 7.97 41.002 7.86988Z" fill="#65D2E4"/>
</g>
</g>
<defs>
<clipPath id="clip0_2699_107463">
<rect width="70" height="70" fill="white"/>
</clipPath>
</defs>
</svg>
