<svg width="70" height="70" viewBox="0 0 70 70" fill="none" xmlns="http://www.w3.org/2000/svg">
<g id="036-cyber security 1" clip-path="url(#clip0_2699_107471)">
<g id="Group">
<path id="Vector" d="M61.7874 30.6688C62.5484 26.9938 60.5898 23.2734 57.1302 21.8226L38.0402 13.8166C36.1176 13.0105 33.8824 13.0105 31.9598 13.8166L24.1296 17.1005C23.6073 17.3195 23.3615 17.9204 23.5805 18.4426C23.7996 18.9649 24.4007 19.2108 24.9227 18.9917L32.7529 15.7078C34.1812 15.109 35.8189 15.1087 37.2472 15.7078L56.3373 23.7138C58.8944 24.7861 60.342 27.5362 59.7794 30.2529C59.1237 33.4203 57.5243 39.7035 54.1802 46.196C50.0291 54.2556 44.5107 60.2051 37.7785 63.8795C36.0739 64.8097 33.9273 64.8101 32.2221 63.8795C25.4897 60.2051 19.9713 54.2556 15.8201 46.196C12.4762 39.7036 10.8768 33.4204 10.2209 30.2528C9.65833 27.5362 11.106 24.7862 13.6632 23.7138L21.1783 20.5622C21.7005 20.3431 21.9463 19.7423 21.7273 19.22C21.5083 18.6976 20.907 18.4519 20.3851 18.6709L12.8701 21.8226C9.41046 23.2734 7.45169 26.9937 8.21281 30.6686C8.88984 33.9385 10.5415 40.426 13.9971 47.135C18.3394 55.566 24.1408 61.8053 31.2398 65.6796C33.5473 66.9391 36.4527 66.9392 38.761 65.6796C45.8598 61.8053 51.6611 55.5659 56.0035 47.135C59.4587 40.4259 61.1104 33.9386 61.7874 30.6688Z" fill="#65D2E4"/>
<path id="Vector_2" d="M12.2289 29.837C12.8637 32.9023 14.4109 38.9816 17.6431 45.257C21.603 52.9452 26.8385 58.6051 33.2041 62.0793C34.3169 62.6866 35.683 62.6867 36.7957 62.0793C43.1615 58.605 48.3969 52.9452 52.3568 45.257C55.5891 38.9815 57.1363 32.9023 57.771 29.837C58.1351 28.0787 57.1984 26.2989 55.5438 25.6049L36.4541 17.5991C35.53 17.2116 34.47 17.2116 33.5459 17.5991L14.4562 25.6049C12.8014 26.2989 11.8648 28.0787 12.2289 29.837ZM15.2491 27.4963L34.339 19.4904C34.7797 19.3142 35.2203 19.3142 35.6608 19.4904L54.7507 27.4963C55.5028 27.8117 55.9286 28.6213 55.7628 29.4213C55.1494 32.384 53.6544 38.259 50.5336 44.318C46.765 51.6351 41.8123 57.0051 35.8133 60.2792C35.304 60.5573 34.696 60.5572 34.1867 60.2792C28.1876 57.0051 23.235 51.6351 19.4663 44.318C16.3457 38.2592 14.8506 32.3841 14.2371 29.4213C14.0714 28.6212 14.497 27.8117 15.2491 27.4963Z" fill="#65D2E4"/>
<path id="Vector_3" d="M30.4088 49.7372H32.9961C33.5624 49.7372 34.0215 49.2781 34.0215 48.7118C34.0215 48.1455 33.5624 47.6864 32.9961 47.6864H30.4088C29.284 47.6864 28.3691 46.7713 28.3691 45.6467V36.4645C28.3691 35.3397 29.2842 34.4248 30.4088 34.4248H39.5911C40.7159 34.4248 41.6308 35.3399 41.6308 36.4645V45.6467C41.6308 46.7715 40.7159 47.6864 39.5911 47.6864H37.0877C36.5214 47.6864 36.0623 48.1455 36.0623 48.7118C36.0623 49.2781 36.5214 49.7372 37.0877 49.7372H39.5913C41.8469 49.7372 43.6818 47.9021 43.6818 45.6467V36.4645C43.6818 34.5734 42.3915 32.9785 40.6454 32.5124V31.6389C40.6454 28.5261 38.1129 25.9938 35.0001 25.9938C31.8873 25.9938 29.355 28.5261 29.355 31.6389V32.5124C27.6087 32.9786 26.3185 34.5734 26.3185 36.4645V45.6467C26.3183 47.9021 28.1534 49.7372 30.4088 49.7372ZM35 28.0444C36.982 28.0444 38.5943 29.6567 38.5943 31.6388V32.3738H31.4056V31.6388C31.4056 29.6567 33.0181 28.0444 35 28.0444Z" fill="#65D2E4"/>
<path id="Vector_4" d="M37.8837 39.4205C37.8837 38.8542 37.4246 38.3951 36.8583 38.3951H33.1417C32.5754 38.3951 32.1163 38.8542 32.1163 39.4205C32.1163 39.9868 32.5754 40.4459 33.1417 40.4459H36.8583C37.4246 40.4459 37.8837 39.987 37.8837 39.4205Z" fill="#65D2E4"/>
<path id="Vector_5" d="M16.549 17.9282C17.1152 17.9282 17.5743 17.4691 17.5743 16.9028V11.416C17.5743 11.2276 17.7277 11.0742 17.9161 11.0742H21.1498C21.5813 12.4116 22.9082 13.3776 24.3151 13.3776C25.5005 13.3776 26.6052 12.7398 27.198 11.7132C27.7908 10.6866 27.7907 9.41114 27.198 8.38438C26.6053 7.35763 25.5005 6.71997 24.3151 6.71997C22.9087 6.71997 21.581 7.68657 21.1498 9.02341H17.9161C16.5969 9.02341 15.5236 10.0968 15.5236 11.416V16.9028C15.5236 17.4691 15.9827 17.9282 16.549 17.9282ZM23.2084 9.40977C23.4359 9.01561 23.86 8.77075 24.3151 8.77075C24.7703 8.77075 25.1944 9.01561 25.422 9.40977C25.6496 9.80394 25.6496 10.2937 25.422 10.6878C25.1944 11.082 24.7703 11.3268 24.3151 11.3268C23.86 11.3268 23.4359 11.082 23.2082 10.6877C22.9807 10.2937 22.9807 9.80394 23.2084 9.40977Z" fill="#65D2E4"/>
<path id="Vector_6" d="M3.3288 17.4792C4.73509 17.4792 6.06291 16.5125 6.49412 15.1758H11.0736V16.9028V18.7305C11.0736 19.2968 11.5327 19.7559 12.099 19.7559C12.6653 19.7559 13.1244 19.2968 13.1244 18.7305V6.49346C13.8965 6.2423 14.5657 5.7143 14.9819 4.99324C15.5746 3.96662 15.5746 2.69104 14.9819 1.66441C14.3892 0.637793 13.2845 0 12.099 0C10.9137 0 9.809 0.637793 9.21619 1.66441C8.62365 2.69104 8.62365 3.96648 9.21619 4.99324C9.63249 5.7143 10.3017 6.2423 11.0736 6.49346V13.125H6.49412C6.06277 11.7876 4.73578 10.8216 3.3288 10.8216C2.14332 10.8216 1.03863 11.4594 0.445952 12.486C-0.14686 13.5126 -0.14686 14.7882 0.445952 15.8147C1.03863 16.8414 2.14332 17.4792 3.3288 17.4792ZM10.9922 2.6898C11.2198 2.29564 11.6439 2.05078 12.099 2.05078C12.5542 2.05078 12.9783 2.29564 13.2059 2.6898C13.4335 3.08396 13.4335 3.57369 13.2059 3.96799C12.9784 4.36215 12.5543 4.60687 12.0992 4.60687C11.644 4.60687 11.2199 4.36201 10.9924 3.96799C10.7647 3.57369 10.7647 3.08396 10.9922 2.6898ZM2.22207 13.5114C2.44957 13.1172 2.87367 12.8723 3.3288 12.8723C3.78394 12.8723 4.20804 13.1172 4.43554 13.5114C4.66318 13.9055 4.66318 14.3953 4.43554 14.7894C4.20791 15.1836 3.7838 15.4284 3.32867 15.4284C2.87353 15.4284 2.44943 15.1836 2.22179 14.7893C1.99443 14.3953 1.99443 13.9055 2.22207 13.5114Z" fill="#65D2E4"/>
<path id="Vector_7" d="M45.6848 13.3776C47.0913 13.3776 48.4189 12.411 48.8501 11.0742H52.0838C52.2722 11.0742 52.4256 11.2276 52.4256 11.416V16.9028C52.4256 17.4691 52.8847 17.9282 53.451 17.9282C54.0173 17.9282 54.4764 17.4691 54.4764 16.9028V11.416C54.4764 10.0968 53.403 9.02341 52.0838 9.02341H48.8501C48.4187 7.68603 47.0918 6.71997 45.6848 6.71997C44.4995 6.71997 43.3948 7.35776 42.802 8.38438C42.2092 9.41101 42.2093 10.6865 42.802 11.7132C43.3947 12.74 44.4993 13.3776 45.6848 13.3776ZM44.578 9.40977C44.8056 9.01561 45.2297 8.77075 45.6848 8.77075C46.14 8.77075 46.5641 9.01562 46.7917 9.40991C47.0193 9.80394 47.0193 10.2937 46.7917 10.688C46.5642 11.0821 46.1401 11.327 45.685 11.327C45.2298 11.327 44.8057 11.0821 44.5781 10.688C44.3505 10.2937 44.3505 9.80394 44.578 9.40977Z" fill="#65D2E4"/>
<path id="Vector_8" d="M56.8756 6.49346V18.7305C56.8756 19.2968 57.3347 19.7559 57.901 19.7559C58.4673 19.7559 58.9264 19.2968 58.9264 18.7305C58.9264 17.5455 58.9264 16.3607 58.9264 15.1758H63.5059C63.9372 16.5132 65.2642 17.4792 66.6712 17.4792C67.8567 17.4792 68.9614 16.8414 69.5541 15.8148C70.1469 14.7882 70.1469 13.5126 69.5541 12.486C68.9614 11.4592 67.8567 10.8214 66.6712 10.8214C65.2649 10.8214 63.9371 11.7882 63.5059 13.1249H58.9264V6.49346C59.6983 6.2423 60.3675 5.7143 60.7838 4.99311C61.3764 3.96648 61.3764 2.69104 60.7838 1.66428C60.191 0.637793 59.0863 0 57.901 0C56.7155 0 55.6108 0.637793 55.0181 1.66441C54.4254 2.69104 54.4254 3.96662 55.0181 4.99324C55.4343 5.71416 56.1035 6.2423 56.8756 6.49346ZM65.5643 13.5114C65.792 13.1172 66.2161 12.8723 66.6712 12.8723C67.1263 12.8723 67.5504 13.1172 67.7781 13.5114C68.0057 13.9055 68.0057 14.3953 67.7781 14.7894C67.5506 15.1836 67.1265 15.4284 66.6713 15.4284C66.2162 15.4284 65.7921 15.1836 65.5645 14.7894C65.3368 14.3953 65.3368 13.9055 65.5643 13.5114ZM56.7941 2.6898C57.0217 2.29564 57.4458 2.05078 57.901 2.05078C58.3561 2.05078 58.7802 2.29564 59.0077 2.68967C59.2353 3.08383 59.2353 3.57369 59.0077 3.96785C58.7801 4.36201 58.356 4.60687 57.9008 4.60687C57.4457 4.60687 57.0216 4.36201 56.794 3.96785C56.5663 3.57369 56.5666 3.08396 56.7941 2.6898Z" fill="#65D2E4"/>
<path id="Vector_9" d="M17.5095 63.5065V57.1987C17.5095 56.6324 17.0504 56.1733 16.4841 56.1733C15.9178 56.1733 15.4587 56.6324 15.4587 57.1987V63.5065C14.6868 63.7577 14.0176 64.2857 13.6013 65.0069C13.0087 66.0335 13.0087 67.3089 13.6013 68.3357C14.1941 69.3622 15.2988 70 16.4841 70C17.6695 70 18.7742 69.3622 19.367 68.3356C19.9596 67.3089 19.9596 66.0334 19.367 65.0067C18.9507 64.2857 18.2816 63.7577 17.5095 63.5065ZM17.591 67.3102C17.3634 67.7043 16.9393 67.9492 16.4841 67.9492C16.029 67.9492 15.6049 67.7043 15.3774 67.3103C15.1497 66.9162 15.1497 66.4263 15.3774 66.0321C15.605 65.638 16.0291 65.3931 16.4843 65.3931C16.9394 65.3931 17.3635 65.638 17.5911 66.0321C17.8186 66.4263 17.8186 66.916 17.591 67.3102Z" fill="#65D2E4"/>
<path id="Vector_10" d="M12.099 48.125H6.49412C6.06277 46.7876 4.73578 45.8215 3.3288 45.8215C2.14332 45.8215 1.03863 46.4593 0.445952 47.4859C-0.14686 48.5126 -0.14686 49.7882 0.445952 50.8148C1.03863 51.8415 2.14332 52.4793 3.3288 52.4793C4.73509 52.4793 6.06291 51.5126 6.49412 50.1759H8.45945V55.6948C7.68753 55.946 7.0183 56.4741 6.60199 57.195C6.00931 58.2217 6.00931 59.4971 6.60199 60.5239C7.19466 61.5506 8.29949 62.1883 9.48484 62.1883C10.6702 62.1883 11.7749 61.5505 12.3677 60.5239C12.9605 59.4972 12.9605 58.2217 12.3677 57.195C11.9514 56.474 11.2821 55.946 10.5102 55.6948V50.1758H12.099C12.6653 50.1758 13.1244 49.7166 13.1244 49.1504C13.1244 48.5841 12.6653 48.125 12.099 48.125ZM10.5917 59.4983C10.3641 59.8925 9.93998 60.1374 9.48484 60.1374C9.0297 60.1374 8.6056 59.8925 8.37796 59.4983C8.15046 59.1042 8.15046 58.6144 8.37796 58.2203C8.6056 57.8261 9.0297 57.5813 9.48484 57.5813C9.93998 57.5813 10.3641 57.8261 10.5917 58.2204C10.8192 58.6146 10.8192 59.1043 10.5917 59.4983ZM4.43568 49.7894C4.20804 50.1835 3.78394 50.4284 3.3288 50.4284C2.87367 50.4284 2.44957 50.1835 2.22193 49.7894C1.99429 49.3952 1.99429 48.9055 2.22193 48.5113C2.44943 48.1172 2.87353 47.8723 3.32867 47.8723C3.7838 47.8723 4.20791 48.1172 4.43554 48.5113C4.66318 48.9055 4.66318 49.3952 4.43568 49.7894Z" fill="#65D2E4"/>
<path id="Vector_11" d="M54.5412 63.5065V57.1987C54.5412 56.6324 54.0821 56.1733 53.5158 56.1733C52.9495 56.1733 52.4904 56.6324 52.4904 57.1987V63.5065C51.7185 63.7577 51.0493 64.2857 50.633 65.0067C50.0403 66.0334 50.0403 67.3089 50.633 68.3357C51.2258 69.3622 52.3303 70 53.5158 70C54.7013 70 55.8059 69.3622 56.3987 68.3356C56.9912 67.3089 56.9912 66.0335 56.3987 65.0067C55.9824 64.2857 55.3131 63.7577 54.5412 63.5065ZM54.6226 67.3102C54.3949 67.7043 53.9708 67.9492 53.5157 67.9492C53.0606 67.9492 52.6365 67.7043 52.4088 67.3102C52.1812 66.916 52.1812 66.4263 52.4088 66.0321C52.6365 65.638 53.0606 65.3931 53.5157 65.3931C53.9708 65.3931 54.3949 65.638 54.6224 66.032C54.8501 66.4263 54.8501 66.916 54.6226 67.3102Z" fill="#65D2E4"/>
<path id="Vector_12" d="M66.6711 45.8215C65.2648 45.8215 63.9369 46.7883 63.5058 48.125H57.9009C57.3346 48.125 56.8755 48.5841 56.8755 49.1504C56.8755 49.7166 57.3346 50.1758 57.9009 50.1758H59.4897V55.6947C58.7178 55.9458 58.0485 56.4738 57.6322 57.1949C57.0394 58.2215 57.0394 59.4971 57.6322 60.5237C58.2249 61.5503 59.3297 62.1881 60.5151 62.1881C61.7004 62.1881 62.8051 61.5503 63.3979 60.5237C63.9907 59.4971 63.9906 58.2216 63.3979 57.1949C62.9816 56.4738 62.3124 55.9458 61.5405 55.6947V50.1758H63.5058C63.9371 51.5131 65.2641 52.4792 66.6711 52.4792C67.8566 52.4792 68.9613 51.8414 69.554 50.8148C70.1468 49.7882 70.1468 48.5126 69.554 47.4861C68.9613 46.4593 67.8566 45.8215 66.6711 45.8215ZM61.622 59.4983C61.3943 59.8925 60.9702 60.1374 60.5151 60.1374C60.0599 60.1374 59.6358 59.8925 59.4082 59.4982C59.1806 59.1042 59.1806 58.6144 59.4082 58.2203C59.6358 57.8261 60.0599 57.5813 60.5151 57.5813C60.9702 57.5813 61.3943 57.8261 61.622 58.2203C61.8495 58.6146 61.8495 59.1043 61.622 59.4983ZM67.7779 49.7894C67.5504 50.1835 67.1263 50.4284 66.6711 50.4284C66.216 50.4284 65.7919 50.1835 65.5644 49.7894C65.3367 49.3952 65.3367 48.9055 65.5644 48.5113C65.792 48.1172 66.2161 47.8723 66.6713 47.8723C67.1264 47.8723 67.5505 48.1172 67.7781 48.5115C68.0055 48.9055 68.0055 49.3952 67.7779 49.7894Z" fill="#65D2E4"/>
</g>
</g>
<defs>
<clipPath id="clip0_2699_107471">
<rect width="70" height="70" fill="white"/>
</clipPath>
</defs>
</svg>
