<svg width="64" height="64" viewBox="0 0 64 64" fill="none" xmlns="http://www.w3.org/2000/svg">
<path d="M29.774 17.7337C30.7596 17.7337 31.5558 18.5403 31.5558 19.5387V21.5524C31.6449 21.5637 31.7285 21.575 31.8176 21.5919C31.8398 21.5976 31.8565 21.5976 31.8788 21.6032L34.5516 22.0996C35.5205 22.2801 36.1608 23.2221 35.9826 24.1979C35.8045 25.1738 34.8746 25.8281 33.9112 25.6476L31.2663 25.1568C29.5234 24.8974 27.9866 25.0722 26.9063 25.5066C25.8261 25.9409 25.3917 26.5388 25.2915 27.0916C25.1801 27.6951 25.2637 28.0336 25.3583 28.2423C25.4585 28.4623 25.6646 28.7104 26.0711 28.9868C26.9787 29.5904 28.3708 29.9852 30.1749 30.4703L30.3364 30.5155C31.9289 30.9441 33.8778 31.4631 35.3256 32.422C36.1163 32.9466 36.8624 33.6573 37.3246 34.6501C37.7979 35.6597 37.8981 36.7879 37.681 37.9893C37.2968 40.1328 35.8379 41.5655 34.0282 42.3157C33.2653 42.6316 32.4356 42.8347 31.5558 42.9362V44.8202C31.5558 45.8186 30.7596 46.6252 29.774 46.6252C28.7884 46.6252 27.9921 45.8186 27.9921 44.8202V42.8516C27.9698 42.8459 27.942 42.8459 27.9197 42.8403H27.9086C26.5499 42.626 24.317 42.0337 22.8136 41.3568C21.9171 40.9507 21.5106 39.8846 21.9115 38.9764C22.3124 38.0683 23.3649 37.6565 24.2614 38.0627C25.4251 38.5872 27.3406 39.1062 28.4487 39.281C30.225 39.5462 31.6895 39.3939 32.6806 38.9821C33.6217 38.5929 34.0504 38.0288 34.1729 37.3519C34.2787 36.754 34.1952 36.4099 34.1006 36.2012C33.9948 35.9756 33.7887 35.7274 33.3767 35.451C32.4635 34.8475 31.0658 34.4526 29.2561 33.9675L29.1002 33.9281C27.5132 33.4881 25.5643 32.9635 24.1166 32.0046C23.3259 31.48 22.5853 30.7636 22.1231 29.7709C21.6554 28.7612 21.5607 27.6331 21.7835 26.4316C22.1844 24.2769 23.7769 22.878 25.5866 22.1504C26.3272 21.8514 27.1402 21.6483 27.9921 21.5299V19.5387C27.9921 18.5403 28.7884 17.7337 29.774 17.7337Z" fill="#F38EC0"/>
<path fill-rule="evenodd" clip-rule="evenodd" d="M61.2766 8.39943C61.2766 11.5892 58.6907 14.1751 55.5009 14.1751C54.6164 14.1751 53.7783 13.9762 53.0289 13.6208L47.3011 18.8713C50.0952 22.5513 51.7534 27.1409 51.7534 32.1178C51.7534 35.1867 51.1229 38.1083 49.9844 40.7602L53.9501 42.9909C54.6874 42.5258 55.5606 42.2567 56.4967 42.2567C59.1366 42.2567 61.2766 44.3967 61.2766 47.0366C61.2766 49.6764 59.1366 51.8164 56.4967 51.8164C53.8569 51.8164 51.7169 49.6764 51.7169 47.0366C51.7169 46.9458 51.7194 46.8556 51.7244 46.7661L47.8609 44.5929C43.9029 50.3037 37.302 54.0437 29.8275 54.0437C24.9227 54.0437 20.3941 52.4333 16.7416 49.7122L13.715 53.1171C14.0738 53.8694 14.2747 54.7115 14.2747 55.6005C14.2747 58.7903 11.6888 61.3761 8.49904 61.3761C5.30924 61.3761 2.72339 58.7903 2.72339 55.6005C2.72339 52.4107 5.30924 49.8248 8.49904 49.8248C9.19193 49.8248 9.85632 49.9468 10.4719 50.1705L13.5052 46.7581C10.021 42.8762 7.90156 37.7445 7.90156 32.1178C7.90156 27.4334 9.3706 23.0921 11.8731 19.5294L9.22675 17.2407C8.69207 17.4474 8.1109 17.5608 7.50324 17.5608C4.8634 17.5608 2.72339 15.4208 2.72339 12.781C2.72339 10.1411 4.8634 8.00111 7.50324 8.00111C10.1431 8.00111 12.2831 10.1411 12.2831 12.781C12.2831 13.1891 12.2319 13.5854 12.1357 13.9636L14.7357 16.2123C18.6668 12.4811 23.9798 10.1919 29.8275 10.1919C35.3821 10.1919 40.4542 12.2573 44.3178 15.6621L50.0754 10.3843C49.8489 9.76539 49.7253 9.09685 49.7253 8.39943C49.7253 5.20963 52.3111 2.62378 55.5009 2.62378C58.6907 2.62378 61.2766 5.20963 61.2766 8.39943ZM29.8275 14.2116C19.9382 14.2116 11.9213 22.2285 11.9213 32.1178C11.9213 42.0071 19.9382 50.024 29.8275 50.024C39.7168 50.024 47.7337 42.0071 47.7337 32.1178C47.7337 22.2285 39.7168 14.2116 29.8275 14.2116Z" fill="#F38EC0"/>
</svg>
