<svg width="155" height="60" viewBox="0 0 155 60" fill="none" xmlns="http://www.w3.org/2000/svg">
<rect x="10" y="10" width="135" height="40" rx="10" fill="#0B1217"/>
<path d="M57.42 20.24C57.4364 20.6067 57.3784 20.9729 57.2495 21.3167C57.1206 21.6604 56.9235 21.9745 56.67 22.24C56.3859 22.5333 56.0431 22.7633 55.664 22.9149C55.2848 23.0666 54.878 23.1364 54.47 23.12C54.0596 23.1291 53.6518 23.054 53.2717 22.8991C52.8915 22.7443 52.5472 22.5132 52.26 22.22C51.6773 21.6239 51.351 20.8235 51.351 19.99C51.351 19.1564 51.6773 18.356 52.26 17.76C52.7055 17.3246 53.2697 17.0307 53.8818 16.9151C54.4938 16.7994 55.1264 16.8672 55.7 17.11C56.0606 17.2582 56.3822 17.4874 56.64 17.78L56.11 18.31C55.9114 18.0707 55.6598 17.8811 55.3751 17.7561C55.0904 17.6311 54.7805 17.5742 54.47 17.59C54.078 17.5927 53.6927 17.6914 53.3476 17.8774C53.0026 18.0634 52.7084 18.3311 52.4907 18.6571C52.273 18.9831 52.1385 19.3574 52.0989 19.7474C52.0593 20.1374 52.1158 20.5311 52.2635 20.8942C52.4112 21.2573 52.6456 21.5787 52.9462 21.8303C53.2467 22.0819 53.6044 22.256 53.9878 22.3375C54.3712 22.419 54.7688 22.4053 55.1457 22.2976C55.5226 22.19 55.8674 21.9916 56.15 21.72C56.4554 21.3851 56.6326 20.9529 56.65 20.5H54.47V19.78H57.38C57.4028 19.9323 57.4161 20.086 57.42 20.24Z" fill="white" stroke="white" stroke-width="0.2" stroke-miterlimit="10"/>
<path d="M62 17.74H59.3V19.64H61.76V20.36H59.3V22.26H62V23H58.52V17H62V17.74Z" fill="white" stroke="white" stroke-width="0.2" stroke-miterlimit="10"/>
<path d="M65.28 23H64.51V17.74H62.83V17H67V17.74H65.28V23Z" fill="white" stroke="white" stroke-width="0.2" stroke-miterlimit="10"/>
<path d="M69.94 23V17H70.71V23H69.94Z" fill="white" stroke="white" stroke-width="0.2" stroke-miterlimit="10"/>
<path d="M74.13 23H73.36V17.74H71.68V17H75.8V17.74H74.13V23Z" fill="white" stroke="white" stroke-width="0.2" stroke-miterlimit="10"/>
<path d="M83.61 22.2199C83.3212 22.509 82.9782 22.7383 82.6007 22.8947C82.2233 23.0512 81.8186 23.1317 81.41 23.1317C81.0014 23.1317 80.5968 23.0512 80.2193 22.8947C79.8418 22.7383 79.4988 22.509 79.21 22.2199C78.6447 21.6189 78.3299 20.825 78.3299 19.9999C78.3299 19.1748 78.6447 18.3809 79.21 17.7799C79.4926 17.4827 79.8344 17.2481 80.2134 17.0914C80.5924 16.9346 81 16.8592 81.41 16.8699C81.8194 16.8634 82.2258 16.9408 82.6041 17.0973C82.9825 17.2538 83.3248 17.4861 83.61 17.7799C83.8976 18.0724 84.1236 18.4195 84.2747 18.8008C84.4259 19.1821 84.4991 19.5898 84.49 19.9999C84.5031 20.4105 84.4318 20.8194 84.2804 21.2012C84.129 21.5831 83.9009 21.9298 83.61 22.2199V22.2199ZM79.78 21.7199C79.993 21.9358 80.2468 22.1072 80.5266 22.2242C80.8064 22.3412 81.1067 22.4014 81.41 22.4014C81.7133 22.4014 82.0136 22.3412 82.2934 22.2242C82.5732 22.1072 82.827 21.9358 83.04 21.7199C83.4715 21.251 83.711 20.6371 83.711 19.9999C83.711 19.3627 83.4715 18.7488 83.04 18.2799C82.827 18.064 82.5732 17.8926 82.2934 17.7756C82.0136 17.6586 81.7133 17.5984 81.41 17.5984C81.1067 17.5984 80.8064 17.6586 80.5266 17.7756C80.2468 17.8926 79.993 18.064 79.78 18.2799C79.3485 18.7488 79.109 19.3627 79.109 19.9999C79.109 20.6371 79.3485 21.251 79.78 21.7199V21.7199Z" fill="white" stroke="white" stroke-width="0.2" stroke-miterlimit="10"/>
<path d="M85.58 23V17H86.51L89.43 21.67V20.51V17H90.2V23H89.4L86.35 18.11V19.26V23H85.58Z" fill="white" stroke="white" stroke-width="0.2" stroke-miterlimit="10"/>
<path d="M78.14 31.7499C77.2975 31.7519 76.4744 32.0037 75.775 32.4734C75.0755 32.9432 74.5311 33.6098 74.2105 34.3889C73.8899 35.1681 73.8075 36.0248 73.9738 36.8508C74.1402 37.6768 74.5477 38.4349 75.1448 39.0293C75.742 39.6236 76.502 40.0276 77.3287 40.19C78.1555 40.3524 79.0118 40.2661 79.7895 39.9418C80.5671 39.6175 81.2312 39.07 81.6976 38.3683C82.1641 37.6667 82.412 36.8425 82.41 35.9999C82.4182 35.4379 82.3131 34.8799 82.1012 34.3593C81.8892 33.8386 81.5747 33.366 81.1763 32.9694C80.7778 32.5729 80.3037 32.2606 79.7821 32.051C79.2605 31.8415 78.702 31.7391 78.14 31.7499V31.7499ZM78.14 38.5799C77.6236 38.616 77.1082 38.496 76.661 38.2353C76.2137 37.9747 75.8552 37.5855 75.632 37.1184C75.4089 36.6512 75.3314 36.1278 75.4097 35.6161C75.488 35.1043 75.7184 34.628 76.071 34.249C76.4236 33.8699 76.882 33.6057 77.3868 33.4907C77.8915 33.3757 78.4192 33.4152 78.9012 33.604C79.3832 33.7929 79.7973 34.1223 80.0895 34.5496C80.3818 34.9769 80.5387 35.4822 80.54 35.9999C80.5561 36.3279 80.5064 36.6559 80.3937 36.9643C80.2811 37.2728 80.1078 37.5556 79.8841 37.7961C79.6605 38.0366 79.3909 38.2298 79.0914 38.3644C78.7918 38.499 78.4683 38.5723 78.14 38.5799ZM68.82 31.7499C67.9775 31.7519 67.1544 32.0037 66.455 32.4734C65.7555 32.9432 65.2111 33.6098 64.8905 34.3889C64.5699 35.1681 64.4875 36.0248 64.6538 36.8508C64.8202 37.6768 65.2277 38.4349 65.8248 39.0293C66.422 39.6236 67.182 40.0276 68.0087 40.19C68.8355 40.3524 69.6918 40.2661 70.4695 39.9418C71.2471 39.6175 71.9112 39.07 72.3776 38.3683C72.8441 37.6667 73.092 36.8425 73.09 35.9999C73.0982 35.4379 72.9931 34.8799 72.7812 34.3593C72.5692 33.8386 72.2547 33.366 71.8563 32.9694C71.4578 32.5729 70.9837 32.2606 70.4621 32.051C69.9405 31.8415 69.382 31.7391 68.82 31.7499V31.7499ZM68.82 38.5799C68.3036 38.616 67.7882 38.496 67.341 38.2353C66.8937 37.9747 66.5352 37.5855 66.312 37.1184C66.0889 36.6512 66.0114 36.1278 66.0897 35.6161C66.168 35.1043 66.3984 34.628 66.751 34.249C67.1036 33.8699 67.562 33.6057 68.0668 33.4907C68.5715 33.3757 69.0992 33.4152 69.5812 33.604C70.0632 33.7929 70.4773 34.1223 70.7695 34.5496C71.0618 34.9769 71.2187 35.4822 71.22 35.9999C71.2361 36.3279 71.1864 36.6559 71.0737 36.9643C70.9611 37.2728 70.7878 37.5556 70.5641 37.7961C70.3405 38.0366 70.0709 38.2298 69.7714 38.3644C69.4718 38.499 69.1483 38.5723 68.82 38.5799ZM57.74 33.0599V34.8599H62.06C61.9923 35.7077 61.6399 36.5077 61.06 37.1299C60.6267 37.5714 60.1055 37.9171 59.5301 38.1444C58.9548 38.3718 58.3381 38.4759 57.72 38.4499C56.447 38.4499 55.2261 37.9442 54.3259 37.044C53.4257 36.1439 52.92 34.923 52.92 33.6499C52.92 32.3769 53.4257 31.156 54.3259 30.2558C55.2261 29.3556 56.447 28.8499 57.72 28.8499C58.9405 28.8318 60.1189 29.2952 61 30.1399L62.27 28.8699C61.674 28.2804 60.9663 27.8158 60.1885 27.5033C59.4106 27.1908 58.5782 27.0366 57.74 27.0499C56.851 27.0153 55.9642 27.1605 55.1326 27.4769C54.3011 27.7932 53.542 28.2742 52.9008 28.8909C52.2596 29.5077 51.7494 30.2475 51.401 31.0661C51.0526 31.8847 50.873 32.7652 50.873 33.6549C50.873 34.5446 51.0526 35.4251 51.401 36.2437C51.7494 37.0623 52.2596 37.8022 52.9008 38.4189C53.542 39.0357 54.3011 39.5166 55.1326 39.833C55.9642 40.1493 56.851 40.2945 57.74 40.2599C58.5954 40.2941 59.4484 40.1469 60.2429 39.8281C61.0374 39.5092 61.7555 39.0259 62.35 38.4099C63.4001 37.2563 63.9597 35.7391 63.91 34.1799C63.9136 33.8046 63.8835 33.4298 63.82 33.0599H57.74ZM103.05 34.4599C102.789 33.6927 102.302 33.0227 101.652 32.5388C101.002 32.0548 100.22 31.7797 99.41 31.7499C98.863 31.7489 98.3216 31.86 97.8192 32.0765C97.3169 32.2929 96.8643 32.6101 96.4894 33.0085C96.1145 33.4068 95.8253 33.8778 95.6396 34.3923C95.454 34.9068 95.3758 35.454 95.41 35.9999C95.4015 36.9128 95.6885 37.8039 96.2281 38.5402C96.7678 39.2765 97.5312 39.8184 98.4043 40.0851C99.2773 40.3517 100.213 40.3288 101.072 40.0196C101.931 39.7105 102.667 39.1318 103.17 38.3699L101.72 37.3699C101.504 37.7302 101.197 38.0277 100.831 38.2329C100.464 38.4382 100.05 38.544 99.63 38.5399C99.1966 38.5578 98.7679 38.4442 98.4002 38.214C98.0326 37.9837 97.7432 37.6477 97.57 37.2499L103.26 34.8999L103.05 34.4599ZM97.25 35.8799C97.2297 35.5693 97.2716 35.2578 97.3733 34.9635C97.4749 34.6693 97.6342 34.3983 97.8419 34.1664C98.0496 33.9346 98.3014 33.7464 98.5827 33.6131C98.864 33.4798 99.169 33.4039 99.48 33.3899C99.8022 33.3703 100.123 33.4461 100.402 33.608C100.682 33.7699 100.907 34.0106 101.05 34.2999L97.25 35.8799ZM92.63 39.9999H94.5V27.4999H92.63V39.9999ZM89.57 32.6999H89.5C89.2207 32.3818 88.8759 32.1277 88.4893 31.9551C88.1027 31.7825 87.6834 31.6955 87.26 31.6999C86.1672 31.7529 85.1367 32.2243 84.382 33.0165C83.6273 33.8087 83.2063 34.8608 83.2063 35.9549C83.2063 37.049 83.6273 38.1012 84.382 38.8933C85.1367 39.6855 86.1672 40.1569 87.26 40.2099C87.684 40.2184 88.1046 40.1332 88.4918 39.9603C88.879 39.7875 89.2233 39.5312 89.5 39.2099H89.57V39.8199C89.57 41.4499 88.7 42.3199 87.3 42.3199C86.8323 42.3096 86.3783 42.1606 85.9955 41.8918C85.6126 41.6229 85.3184 41.2464 85.15 40.8099L83.53 41.4799C83.8295 42.2322 84.3503 42.8758 85.0234 43.3258C85.6966 43.7757 86.4904 44.0108 87.3 43.9999C89.49 43.9999 91.3 42.7099 91.3 39.5699V31.9999H89.57V32.6999ZM87.42 38.5799C86.7648 38.5391 86.1498 38.25 85.7003 37.7716C85.2508 37.2932 85.0006 36.6614 85.0006 36.0049C85.0006 35.3485 85.2508 34.7167 85.7003 34.2383C86.1498 33.7598 86.7648 33.4708 87.42 33.4299C87.7402 33.4437 88.0544 33.5218 88.3439 33.6596C88.6333 33.7973 88.8921 33.9918 89.1048 34.2316C89.3175 34.4714 89.4798 34.7515 89.5821 35.0553C89.6843 35.3591 89.7244 35.6803 89.7 35.9999C89.7273 36.3206 89.6892 36.6435 89.5882 36.9491C89.4871 37.2546 89.3251 37.5365 89.112 37.7777C88.8988 38.0189 88.639 38.2143 88.3482 38.3522C88.0574 38.4901 87.7416 38.5676 87.42 38.5799V38.5799ZM111.81 27.4999H107.33V39.9999H109.2V35.2599H111.81C112.343 35.2982 112.878 35.2263 113.382 35.0487C113.886 34.871 114.348 34.5915 114.739 34.2274C115.13 33.8634 115.442 33.4227 115.655 32.9328C115.869 32.4428 115.979 31.9142 115.979 31.3799C115.979 30.8456 115.869 30.317 115.655 29.8271C115.442 29.3372 115.13 28.8965 114.739 28.5324C114.348 28.1684 113.886 27.8888 113.382 27.7112C112.878 27.5336 112.343 27.4616 111.81 27.4999V27.4999ZM111.81 33.4999H109.2V29.2399H111.85C112.131 29.2399 112.409 29.2953 112.669 29.4028C112.929 29.5104 113.164 29.668 113.363 29.8667C113.562 30.0654 113.72 30.3013 113.827 30.561C113.935 30.8206 113.99 31.0989 113.99 31.3799C113.99 31.661 113.935 31.9392 113.827 32.1989C113.72 32.4585 113.562 32.6944 113.363 32.8931C113.164 33.0918 112.929 33.2495 112.669 33.357C112.409 33.4646 112.131 33.5199 111.85 33.5199L111.81 33.4999ZM123.35 31.7099C122.669 31.6679 121.991 31.8265 121.399 32.1659C120.807 32.5054 120.328 33.0109 120.02 33.6199L121.67 34.3099C121.837 34.0093 122.087 33.7634 122.39 33.602C122.694 33.4405 123.038 33.3703 123.38 33.3999C123.617 33.3722 123.858 33.392 124.088 33.4582C124.317 33.5245 124.531 33.6358 124.718 33.7856C124.904 33.9355 125.058 34.1209 125.172 34.3311C125.286 34.5413 125.356 34.7721 125.38 35.0099V35.1299C124.779 34.8138 124.109 34.6491 123.43 34.6499C121.65 34.6499 119.83 35.6499 119.83 37.4699C119.848 37.8568 119.943 38.2361 120.11 38.5855C120.277 38.9348 120.513 39.247 120.803 39.5035C121.093 39.7601 121.431 39.9557 121.799 40.0787C122.166 40.2018 122.554 40.2498 122.94 40.2199C123.409 40.2459 123.877 40.1466 124.295 39.9322C124.713 39.7178 125.067 39.3961 125.32 38.9999H125.38V39.9999H127.18V35.1899C127.18 32.9999 125.52 31.7299 123.39 31.7299L123.35 31.7099ZM123.12 38.5599C122.51 38.5599 121.66 38.2499 121.66 37.4999C121.66 36.4999 122.72 36.1599 123.66 36.1599C124.254 36.1453 124.841 36.2903 125.36 36.5799C125.297 37.123 125.04 37.6249 124.635 37.9926C124.231 38.3604 123.707 38.569 123.16 38.5799L123.12 38.5599ZM133.74 31.9999L131.6 37.4199H131.54L129.32 31.9999H127.32L130.65 39.5799L128.75 43.7899H130.7L135.82 31.9999H133.74ZM116.94 39.9999H118.8V27.4999H116.94V39.9999Z" fill="white"/>
<path d="M20.44 17.54C20.1105 17.9296 19.9423 18.4304 19.97 18.94V41.06C19.936 41.5704 20.1049 42.0735 20.44 42.46L20.51 42.54L32.9 30.15V29.85L20.51 17.47L20.44 17.54Z" fill="url(#paint0_linear_890_9378)"/>
<path d="M37 34.28L32.9 30.15V29.85L37 25.72L37.09 25.78L42 28.56C43.4 29.35 43.4 30.65 42 31.45L37.11 34.23L37 34.28Z" fill="url(#paint1_linear_890_9378)"/>
<path d="M37.12 34.22L32.9 30L20.44 42.46C20.7226 42.7115 21.0843 42.8562 21.4624 42.869C21.8404 42.8818 22.2111 42.7619 22.51 42.53L37.12 34.22" fill="url(#paint2_linear_890_9378)"/>
<path d="M37.12 25.78L22.51 17.48C22.213 17.2449 21.8427 17.122 21.4641 17.133C21.0855 17.144 20.7229 17.2881 20.44 17.54L32.9 30L37.12 25.78Z" fill="url(#paint3_linear_890_9378)"/>
<path opacity="0.2" d="M37 34.1299L22.51 42.3799C22.2219 42.5973 21.8709 42.7149 21.51 42.7149C21.1491 42.7149 20.7981 42.5973 20.51 42.3799V42.3799L20.44 42.4499L20.51 42.5299C20.7981 42.7473 21.1491 42.8649 21.51 42.8649C21.8709 42.8649 22.2219 42.7473 22.51 42.5299L37.12 34.2199L37 34.1299Z" fill="black"/>
<path opacity="0.12" d="M20.44 42.3199C20.1188 41.9233 19.9614 41.4188 20 40.9099V41.0599C19.966 41.5703 20.1349 42.0735 20.47 42.4599L20.54 42.3899L20.44 42.3199Z" fill="black"/>
<path opacity="0.12" d="M42 31.3L37 34.13L37.09 34.22L42 31.44C42.2898 31.3174 42.5413 31.119 42.7278 30.8656C42.9143 30.6122 43.0291 30.3132 43.06 30C42.9975 30.2846 42.869 30.5505 42.6849 30.7763C42.5007 31.0021 42.2662 31.1815 42 31.3Z" fill="black"/>
<path opacity="0.25" d="M22.51 17.62L42 28.7C42.2662 28.8185 42.5007 28.9979 42.6849 29.2237C42.869 29.4495 42.9975 29.7154 43.06 30C43.0291 29.6868 42.9143 29.3878 42.7278 29.1344C42.5413 28.881 42.2898 28.6825 42 28.56L22.51 17.48C21.12 16.68 19.97 17.34 19.97 18.94V19.09C20 17.49 21.12 16.83 22.51 17.62Z" fill="white"/>
<defs>
<linearGradient id="paint0_linear_890_9378" x1="31.8" y1="18.71" x2="15.02" y2="35.49" gradientUnits="userSpaceOnUse">
<stop stop-color="#00A0FF"/>
<stop offset="0.01" stop-color="#00A1FF"/>
<stop offset="0.26" stop-color="#00BEFF"/>
<stop offset="0.51" stop-color="#00D2FF"/>
<stop offset="0.76" stop-color="#00DFFF"/>
<stop offset="1" stop-color="#00E3FF"/>
</linearGradient>
<linearGradient id="paint1_linear_890_9378" x1="43.83" y1="30" x2="19.64" y2="30" gradientUnits="userSpaceOnUse">
<stop stop-color="#FFE000"/>
<stop offset="0.41" stop-color="#FFBD00"/>
<stop offset="0.78" stop-color="#FFA500"/>
<stop offset="1" stop-color="#FF9C00"/>
</linearGradient>
<linearGradient id="paint2_linear_890_9378" x1="34.83" y1="32.3" x2="12.07" y2="55.05" gradientUnits="userSpaceOnUse">
<stop stop-color="#FF3A44"/>
<stop offset="1" stop-color="#C31162"/>
</linearGradient>
<linearGradient id="paint3_linear_890_9378" x1="17.3" y1="10.18" x2="27.46" y2="20.34" gradientUnits="userSpaceOnUse">
<stop stop-color="#32A071"/>
<stop offset="0.07" stop-color="#2DA771"/>
<stop offset="0.48" stop-color="#15CF74"/>
<stop offset="0.8" stop-color="#06E775"/>
<stop offset="1" stop-color="#00F076"/>
</linearGradient>
</defs>
</svg>
