<svg width="12" height="12" viewBox="0 0 12 12" fill="none" xmlns="http://www.w3.org/2000/svg">
<path d="M10.8655 4.40649V2.80469L1.06738 7.61948V9.22128L10.8655 4.40649Z" fill="#1C2127"/>
<path d="M10.8682 2.78598L9.25706 1.99915L7.6084 2.80471L10.8589 4.40651L10.8682 2.78598Z" fill="#1C2127"/>
<path d="M1.07666 7.61047V9.21228L2.70657 10.0179L4.33647 9.21228L1.07666 7.61047Z" fill="#1C2127"/>
<path d="M1.07666 2.7958V6.54273L2.70657 5.73714V1.99023L1.07666 2.7958Z" fill="#1C2127"/>
<path d="M2.70657 1.99023L1.07666 2.7958L4.88914 4.66928L6.51905 3.86369L2.70657 1.99023Z" fill="#1C2127"/>
<path d="M5.42727 2.2578L5.97056 1.98615L6.51388 2.24845L8.15314 1.44286L5.97056 0.375L3.79736 1.44286L5.42727 2.2578Z" fill="#1C2127"/>
<path d="M7.07141 7.34399L5.43213 8.14958L9.23526 10.023L10.8652 9.21747L7.07141 7.34399Z" fill="#1C2127"/>
<path d="M10.8653 5.47058L9.23535 6.27617V10.0231L10.8653 9.21751V5.47058Z" fill="#1C2127"/>
<path d="M6.51434 9.75159L5.97105 10.0232L5.42773 9.75159L3.79785 10.5572L5.97105 11.625L8.14425 10.5572L6.51434 9.75159Z" fill="#1C2127"/>
</svg>
