<svg width="128" height="57" viewBox="0 0 128 57" fill="none" xmlns="http://www.w3.org/2000/svg">
<rect x="1.4209" y="0.630127" width="126.085" height="55" rx="6.5" fill="#040D19"/>
<rect x="1.4209" y="0.630127" width="126.085" height="55" rx="6.5" stroke="#0B213F"/>
<path d="M29.1909 28.7977C29.2013 27.9928 29.4151 27.2036 29.8124 26.5035C30.2098 25.8034 30.7778 25.2152 31.4635 24.7936C31.0279 24.1715 30.4532 23.6595 29.785 23.2982C29.1169 22.937 28.3737 22.7366 27.6146 22.7129C25.9952 22.5429 24.4252 23.6819 23.6 23.6819C22.7588 23.6819 21.4883 22.7297 20.1201 22.7579C19.2351 22.7865 18.3726 23.0438 17.6167 23.5048C16.8608 23.9659 16.2371 24.6148 15.8066 25.3885C13.9415 28.6176 15.3327 33.3633 17.1193 35.9735C18.0131 37.2516 19.0578 38.6793 20.4247 38.6287C21.7624 38.5732 22.262 37.7757 23.8766 37.7757C25.4763 37.7757 25.945 38.6287 27.3396 38.5965C28.775 38.5732 29.6793 37.3127 30.5418 36.0225C31.1841 35.1118 31.6783 34.1052 32.0061 33.0402C31.1722 32.6875 30.4606 32.0971 29.96 31.3427C29.4594 30.5883 29.1919 29.7032 29.1909 28.7977Z" fill="white"/>
<path d="M26.5567 20.9964C27.3393 20.0569 27.7248 18.8493 27.6315 17.6301C26.4358 17.7557 25.3314 18.3272 24.5382 19.2306C24.1504 19.672 23.8533 20.1854 23.6641 20.7416C23.4748 21.2979 23.3971 21.8859 23.4352 22.4722C24.0333 22.4784 24.6249 22.3487 25.1656 22.0931C25.7063 21.8375 26.1819 21.4625 26.5567 20.9964Z" fill="white"/>
<path d="M39.9511 24.1301V17.2421H41.6731C42.7371 17.2421 43.5456 17.5396 44.0986 18.1346C44.6516 18.7226 44.9281 19.5626 44.9281 20.6546C44.9281 21.7536 44.6516 22.6076 44.0986 23.2166C43.5526 23.8256 42.7581 24.1301 41.7151 24.1301H39.9511ZM40.8226 23.4161H41.6101C42.4151 23.4161 43.0171 23.1746 43.4161 22.6916C43.8221 22.2016 44.0251 21.5226 44.0251 20.6546C44.0251 19.7866 43.8221 19.1216 43.4161 18.6596C43.0171 18.1906 42.4151 17.9561 41.6101 17.9561H40.8226V23.4161ZM46.4111 24.1301V17.2421H50.3801V17.9771H47.2826V20.1401H49.8971V20.8856H47.2826V23.3846H50.4851V24.1301H46.4111ZM51.1607 24.1301L53.1662 20.5706L51.2972 17.2421H52.2632L53.1977 19.0061C53.2887 19.1601 53.3727 19.3141 53.4497 19.4681C53.5337 19.6221 53.6282 19.8006 53.7332 20.0036H53.7752C53.8732 19.8006 53.9572 19.6221 54.0272 19.4681C54.1042 19.3141 54.1847 19.1601 54.2687 19.0061L55.1822 17.2421H56.1062L54.2267 20.6126L56.2322 24.1301H55.2662L54.2582 22.2716C54.1672 22.1036 54.0727 21.9321 53.9747 21.7571C53.8837 21.5751 53.7822 21.3791 53.6702 21.1691H53.6282C53.5302 21.3791 53.4357 21.5751 53.3447 21.7571C53.2537 21.9321 53.1662 22.1036 53.0822 22.2716L52.0847 24.1301H51.1607ZM58.5544 24.1301V17.9771H56.4754V17.2421H61.5154V17.9771H59.4364V24.1301H58.5544ZM63.959 24.2561C63.546 24.2561 63.1575 24.1511 62.7935 23.9411C62.4365 23.7311 62.146 23.4266 61.922 23.0276C61.705 22.6286 61.5965 22.1491 61.5965 21.5891C61.5965 21.0151 61.705 20.5286 61.922 20.1296C62.146 19.7306 62.4365 19.4261 62.7935 19.2161C63.1575 19.0061 63.546 18.9011 63.959 18.9011C64.379 18.9011 64.7675 19.0061 65.1245 19.2161C65.4815 19.4261 65.7685 19.7306 65.9855 20.1296C66.2095 20.5286 66.3215 21.0151 66.3215 21.5891C66.3215 22.1491 66.2095 22.6286 65.9855 23.0276C65.7685 23.4266 65.4815 23.7311 65.1245 23.9411C64.7675 24.1511 64.379 24.2561 63.959 24.2561ZM63.959 23.5421C64.4 23.5421 64.7535 23.3636 65.0195 23.0066C65.2925 22.6426 65.429 22.1701 65.429 21.5891C65.429 21.0011 65.2925 20.5251 65.0195 20.1611C64.7535 19.7971 64.4 19.6151 63.959 19.6151C63.525 19.6151 63.1715 19.7971 62.8985 20.1611C62.6255 20.5251 62.489 21.0011 62.489 21.5891C62.489 22.1701 62.6255 22.6426 62.8985 23.0066C63.1715 23.3636 63.525 23.5421 63.959 23.5421ZM69.6499 24.2561C69.2369 24.2561 68.8484 24.1511 68.4844 23.9411C68.1274 23.7311 67.8369 23.4266 67.6129 23.0276C67.3959 22.6286 67.2874 22.1491 67.2874 21.5891C67.2874 21.0151 67.3959 20.5286 67.6129 20.1296C67.8369 19.7306 68.1274 19.4261 68.4844 19.2161C68.8484 19.0061 69.2369 18.9011 69.6499 18.9011C70.0699 18.9011 70.4584 19.0061 70.8154 19.2161C71.1724 19.4261 71.4594 19.7306 71.6764 20.1296C71.9004 20.5286 72.0124 21.0151 72.0124 21.5891C72.0124 22.1491 71.9004 22.6286 71.6764 23.0276C71.4594 23.4266 71.1724 23.7311 70.8154 23.9411C70.4584 24.1511 70.0699 24.2561 69.6499 24.2561ZM69.6499 23.5421C70.0909 23.5421 70.4444 23.3636 70.7104 23.0066C70.9834 22.6426 71.1199 22.1701 71.1199 21.5891C71.1199 21.0011 70.9834 20.5251 70.7104 20.1611C70.4444 19.7971 70.0909 19.6151 69.6499 19.6151C69.2159 19.6151 68.8624 19.7971 68.5894 20.1611C68.3164 20.5251 68.1799 21.0011 68.1799 21.5891C68.1799 22.1701 68.3164 22.6426 68.5894 23.0066C68.8624 23.3636 69.2159 23.5421 69.6499 23.5421ZM74.2699 24.2561C73.9479 24.2561 73.7134 24.1581 73.5664 23.9621C73.4264 23.7591 73.3564 23.4721 73.3564 23.1011V16.6541H74.2174V23.1641C74.2174 23.2971 74.2419 23.3951 74.2909 23.4581C74.3399 23.5141 74.3959 23.5421 74.4589 23.5421C74.4869 23.5421 74.5114 23.5421 74.5324 23.5421C74.5604 23.5351 74.5989 23.5281 74.6479 23.5211L74.7634 24.1721C74.7074 24.2001 74.6409 24.2211 74.5639 24.2351C74.4869 24.2491 74.3889 24.2561 74.2699 24.2561ZM77.3661 24.2561C77.0021 24.2561 76.6556 24.1896 76.3266 24.0566C75.9976 23.9166 75.7106 23.7486 75.4656 23.5526L75.8961 22.9751C76.1201 23.1501 76.3511 23.2971 76.5891 23.4161C76.8271 23.5281 77.0966 23.5841 77.3976 23.5841C77.7336 23.5841 77.9856 23.5071 78.1536 23.3531C78.3216 23.1921 78.4056 23.0031 78.4056 22.7861C78.4056 22.6111 78.3461 22.4641 78.2271 22.3451C78.1151 22.2261 77.9681 22.1281 77.7861 22.0511C77.6111 21.9671 77.4291 21.8901 77.2401 21.8201C77.0021 21.7291 76.7676 21.6276 76.5366 21.5156C76.3056 21.3966 76.1166 21.2461 75.9696 21.0641C75.8226 20.8751 75.7491 20.6371 75.7491 20.3501C75.7491 19.9371 75.9031 19.5941 76.2111 19.3211C76.5261 19.0411 76.9601 18.9011 77.5131 18.9011C77.8281 18.9011 78.1221 18.9571 78.3951 19.0691C78.6681 19.1811 78.9026 19.3176 79.0986 19.4786L78.6786 20.0246C78.5036 19.8916 78.3216 19.7831 78.1326 19.6991C77.9436 19.6151 77.7371 19.5731 77.5131 19.5731C77.1911 19.5731 76.9531 19.6466 76.7991 19.7936C76.6521 19.9406 76.5786 20.1121 76.5786 20.3081C76.5786 20.4691 76.6311 20.6021 76.7361 20.7071C76.8411 20.8051 76.9776 20.8926 77.1456 20.9696C77.3136 21.0396 77.4921 21.1131 77.6811 21.1901C77.9261 21.2811 78.1676 21.3861 78.4056 21.5051C78.6436 21.6171 78.8396 21.7711 78.9936 21.9671C79.1546 22.1561 79.2351 22.4116 79.2351 22.7336C79.2351 23.0066 79.1616 23.2586 79.0146 23.4896C78.8746 23.7206 78.6646 23.9061 78.3846 24.0461C78.1116 24.1861 77.7721 24.2561 77.3661 24.2561ZM83.8041 20.2766L83.4786 21.3266H85.5471L85.2216 20.2766C85.0956 19.8916 84.9766 19.5101 84.8646 19.1321C84.7526 18.7471 84.6406 18.3551 84.5286 17.9561H84.4866C84.3816 18.3551 84.2731 18.7471 84.1611 19.1321C84.0491 19.5101 83.9301 19.8916 83.8041 20.2766ZM81.7041 24.1301L84.0351 17.2421H85.0221L87.3531 24.1301H86.4186L85.7676 22.0301H83.2581L82.5966 24.1301H81.7041ZM88.245 26.2826V19.0271H88.959L89.0325 19.6151H89.064C89.295 19.4191 89.547 19.2511 89.82 19.1111C90.1 18.9711 90.3905 18.9011 90.6915 18.9011C91.3495 18.9011 91.85 19.1391 92.193 19.6151C92.536 20.0841 92.7075 20.7141 92.7075 21.5051C92.7075 22.0791 92.6025 22.5726 92.3925 22.9856C92.1895 23.3986 91.92 23.7136 91.584 23.9306C91.255 24.1476 90.8945 24.2561 90.5025 24.2561C90.2645 24.2561 90.0265 24.2036 89.7885 24.0986C89.5575 23.9936 89.323 23.8501 89.085 23.6681L89.106 24.5606V26.2826H88.245ZM90.3555 23.5316C90.7755 23.5316 91.122 23.3531 91.395 22.9961C91.675 22.6321 91.815 22.1351 91.815 21.5051C91.815 20.9451 91.71 20.4936 91.5 20.1506C91.297 19.8006 90.954 19.6256 90.471 19.6256C90.254 19.6256 90.0335 19.6851 89.8095 19.8041C89.5925 19.9231 89.358 20.0946 89.106 20.3186V22.9961C89.337 23.1921 89.561 23.3321 89.778 23.4161C89.995 23.4931 90.1875 23.5316 90.3555 23.5316ZM94.0693 26.2826V19.0271H94.7833L94.8568 19.6151H94.8883C95.1193 19.4191 95.3713 19.2511 95.6443 19.1111C95.9243 18.9711 96.2148 18.9011 96.5158 18.9011C97.1738 18.9011 97.6743 19.1391 98.0173 19.6151C98.3603 20.0841 98.5318 20.7141 98.5318 21.5051C98.5318 22.0791 98.4268 22.5726 98.2168 22.9856C98.0138 23.3986 97.7443 23.7136 97.4083 23.9306C97.0793 24.1476 96.7188 24.2561 96.3268 24.2561C96.0888 24.2561 95.8508 24.2036 95.6128 24.0986C95.3818 23.9936 95.1473 23.8501 94.9093 23.6681L94.9303 24.5606V26.2826H94.0693ZM96.1798 23.5316C96.5998 23.5316 96.9463 23.3531 97.2193 22.9961C97.4993 22.6321 97.6393 22.1351 97.6393 21.5051C97.6393 20.9451 97.5343 20.4936 97.3243 20.1506C97.1213 19.8006 96.7783 19.6256 96.2953 19.6256C96.0783 19.6256 95.8578 19.6851 95.6338 19.8041C95.4168 19.9231 95.1823 20.0946 94.9303 20.3186V22.9961C95.1613 23.1921 95.3853 23.3321 95.6023 23.4161C95.8193 23.4931 96.0118 23.5316 96.1798 23.5316Z" fill="white"/>
<path d="M46.5684 36.0306H42.023L40.9314 39.2538H39.0061L43.3115 27.3289H45.3118L49.6172 39.2538H47.6591L46.5684 36.0306ZM42.4937 34.5433H46.0968L44.3206 29.3123H44.2709L42.4937 34.5433Z" fill="white"/>
<path d="M58.9153 34.9072C58.9153 37.609 57.4693 39.3448 55.287 39.3448C54.7342 39.3738 54.1845 39.2464 53.7007 38.9774C53.2169 38.7084 52.8186 38.3086 52.5515 37.8237H52.5102V42.1301H50.7256V30.5596H52.453V32.0057H52.4858C52.7653 31.5232 53.1702 31.1254 53.6577 30.8548C54.1452 30.5841 54.6969 30.4507 55.2542 30.4686C57.4608 30.4687 58.9153 32.2129 58.9153 34.9072ZM57.081 34.9072C57.081 33.147 56.1714 31.9897 54.7834 31.9897C53.4199 31.9897 52.5027 33.1714 52.5027 34.9072C52.5027 36.659 53.4199 37.8322 54.7834 37.8322C56.1714 37.8322 57.081 36.6834 57.081 34.9072Z" fill="white"/>
<path d="M68.4845 34.9072C68.4845 37.609 67.0385 39.3448 64.8562 39.3448C64.3034 39.3737 63.7537 39.2464 63.2699 38.9774C62.7861 38.7084 62.3878 38.3086 62.1207 37.8237H62.0794V42.1301H60.2948V30.5596H62.0222V32.0057H62.055C62.3344 31.5232 62.7394 31.1254 63.2269 30.8548C63.7144 30.5841 64.2661 30.4507 64.8234 30.4686C67.03 30.4686 68.4845 32.2129 68.4845 34.9072ZM66.6502 34.9072C66.6502 33.147 65.7406 31.9897 64.3526 31.9897C62.9891 31.9897 62.0719 33.1714 62.0719 34.9072C62.0719 36.659 62.9891 37.8322 64.3526 37.8322C65.7406 37.8322 66.6502 36.6834 66.6502 34.9072H66.6502Z" fill="white"/>
<path d="M74.809 35.9313C74.9413 37.1139 76.0901 37.8903 77.6599 37.8903C79.1641 37.8903 80.2463 37.1139 80.2463 36.0476C80.2463 35.122 79.5936 34.5678 78.0482 34.1879L76.5027 33.8156C74.3129 33.2867 73.2964 32.2627 73.2964 30.6009C73.2964 28.5434 75.0894 27.1301 77.6355 27.1301C80.1553 27.1301 81.8828 28.5434 81.9409 30.6009H80.1394C80.0316 29.4108 79.0478 28.6925 77.6102 28.6925C76.1725 28.6925 75.1888 29.4193 75.1888 30.4771C75.1888 31.3202 75.8171 31.8163 77.3542 32.196L78.668 32.5186C81.1147 33.0973 82.1313 34.0801 82.1313 35.8244C82.1313 38.0554 80.3541 39.4527 77.5276 39.4527C74.8831 39.4527 73.0975 38.0882 72.9822 35.9313L74.809 35.9313Z" fill="white"/>
<path d="M85.9828 28.5022V30.5597H87.6362V31.973H85.9828V36.766C85.9828 37.5106 86.3139 37.8576 87.0407 37.8576C87.237 37.8542 87.4329 37.8404 87.6277 37.8163V39.2211C87.301 39.2822 86.9688 39.3098 86.6365 39.3036C84.8763 39.3036 84.1898 38.6425 84.1898 36.9563V31.973H82.9257V30.5597H84.1898V28.5022H85.9828Z" fill="white"/>
<path d="M88.5938 34.9071C88.5938 32.1716 90.2049 30.4526 92.7172 30.4526C95.238 30.4526 96.8416 32.1716 96.8416 34.9071C96.8416 37.6502 95.2464 39.3616 92.7172 39.3616C90.1889 39.3616 88.5938 37.6502 88.5938 34.9071ZM95.0232 34.9071C95.0232 33.0306 94.1633 31.9231 92.7172 31.9231C91.2711 31.9231 90.4121 33.0391 90.4121 34.9071C90.4121 36.7912 91.2711 37.8903 92.7172 37.8903C94.1633 37.8903 95.0232 36.7912 95.0232 34.9071H95.0232Z" fill="white"/>
<path d="M98.3129 30.5595H100.015V32.0393H100.056C100.171 31.5772 100.442 31.1687 100.823 30.8827C101.204 30.5966 101.672 30.4504 102.148 30.4686C102.353 30.4678 102.558 30.4902 102.759 30.5351V32.2044C102.499 32.1251 102.228 32.0886 101.957 32.0966C101.698 32.086 101.439 32.1318 101.199 32.2306C100.96 32.3294 100.744 32.4789 100.567 32.6689C100.391 32.859 100.257 33.085 100.176 33.3315C100.095 33.578 100.068 33.8391 100.097 34.0969V39.2538H98.3129L98.3129 30.5595Z" fill="white"/>
<path d="M110.987 36.7002C110.747 38.2785 109.21 39.3616 107.243 39.3616C104.714 39.3616 103.144 37.6671 103.144 34.9484C103.144 32.2213 104.723 30.4526 107.168 30.4526C109.574 30.4526 111.087 32.105 111.087 34.7412V35.3526H104.946V35.4604C104.918 35.7804 104.958 36.1027 105.063 36.406C105.169 36.7093 105.338 36.9867 105.56 37.2196C105.781 37.4525 106.049 37.6357 106.346 37.757C106.644 37.8783 106.964 37.9349 107.285 37.9231C107.706 37.9626 108.13 37.8649 108.491 37.6446C108.853 37.4242 109.134 37.093 109.293 36.7002L110.987 36.7002ZM104.954 34.1053H109.301C109.317 33.8176 109.273 33.5297 109.173 33.2597C109.072 32.9896 108.917 32.7433 108.717 32.5361C108.517 32.3289 108.276 32.1653 108.009 32.0556C107.743 31.9459 107.457 31.8925 107.168 31.8987C106.878 31.897 106.59 31.9528 106.321 32.063C106.052 32.1732 105.807 32.3355 105.602 32.5407C105.396 32.7458 105.233 32.9897 105.122 33.2583C105.01 33.5268 104.954 33.8147 104.954 34.1053V34.1053Z" fill="white"/>
</svg>
