<svg width="129" height="57" viewBox="0 0 129 57" fill="none" xmlns="http://www.w3.org/2000/svg">
<rect x="0.506104" y="0.630127" width="127.994" height="55" rx="6.5" fill="#040D19"/>
<rect x="0.506104" y="0.630127" width="127.994" height="55" rx="6.5" stroke="#0B213F"/>
<path d="M14.3931 17.9626C14.1242 18.2805 13.987 18.6892 14.0096 19.1049V37.1532C13.9818 37.5697 14.1197 37.9802 14.3931 38.2955L14.4502 38.3608L24.5595 28.2515V28.0067L14.4502 17.9055L14.3931 17.9626Z" fill="url(#paint0_linear_4073_22082)"/>
<path d="M27.9049 31.6213L24.5596 28.2515V28.0067L27.9049 24.637L27.9783 24.6859L31.9845 26.9542C33.1268 27.5988 33.1268 28.6595 31.9845 29.3122L27.9946 31.5805L27.9049 31.6213Z" fill="url(#paint1_linear_4073_22082)"/>
<path d="M28.0027 31.5724L24.5595 28.1292L14.3931 38.2956C14.6236 38.5008 14.9187 38.6189 15.2272 38.6293C15.5357 38.6398 15.8381 38.5419 16.082 38.3527L28.0027 31.5724Z" fill="url(#paint2_linear_4073_22082)"/>
<path d="M28.0027 24.686L16.082 17.9138C15.8397 17.722 15.5375 17.6217 15.2286 17.6307C14.9197 17.6396 14.6239 17.7572 14.3931 17.9627L24.5595 28.1292L28.0027 24.686Z" fill="url(#paint3_linear_4073_22082)"/>
<path opacity="0.2" d="M27.9048 31.499L16.082 38.2304C15.847 38.4078 15.5606 38.5038 15.2661 38.5038C14.9716 38.5038 14.6852 38.4078 14.4502 38.2304L14.3931 38.2875L14.4502 38.3528C14.6852 38.5302 14.9716 38.6261 15.2661 38.6261C15.5606 38.6261 15.847 38.5302 16.082 38.3528L28.0027 31.5725L27.9048 31.499Z" fill="black"/>
<path opacity="0.12" d="M14.3931 38.1815C14.131 37.8578 14.0026 37.4463 14.0341 37.031V37.1534C14.0063 37.5698 14.1442 37.9804 14.4176 38.2957L14.4747 38.2386L14.3931 38.1815Z" fill="black"/>
<path opacity="0.12" d="M31.9844 29.1899L27.9048 31.4989L27.9782 31.5724L31.9844 29.3041C32.2209 29.2041 32.426 29.0422 32.5782 28.8354C32.7304 28.6286 32.8241 28.3847 32.8493 28.1292C32.7983 28.3613 32.6934 28.5783 32.5432 28.7625C32.393 28.9468 32.2016 29.0931 31.9844 29.1899Z" fill="black"/>
<path opacity="0.25" d="M16.0821 18.0279L31.9845 27.0684C32.2017 27.1651 32.3931 27.3114 32.5433 27.4957C32.6935 27.6799 32.7984 27.8969 32.8494 28.1291C32.8242 27.8736 32.7305 27.6296 32.5783 27.4228C32.4261 27.216 32.221 27.0541 31.9845 26.9541L16.0821 17.9137C14.948 17.2609 14.0096 17.7994 14.0096 19.1049V19.2273C14.0341 17.9218 14.948 17.3833 16.0821 18.0279Z" fill="white"/>
<path d="M40.7944 24.1301V17.2421H42.5164C43.5804 17.2421 44.3889 17.5396 44.9419 18.1346C45.4949 18.7226 45.7714 19.5626 45.7714 20.6546C45.7714 21.7536 45.4949 22.6076 44.9419 23.2166C44.3959 23.8256 43.6014 24.1301 42.5584 24.1301H40.7944ZM41.6659 23.4161H42.4534C43.2584 23.4161 43.8604 23.1746 44.2594 22.6916C44.6654 22.2016 44.8684 21.5226 44.8684 20.6546C44.8684 19.7866 44.6654 19.1216 44.2594 18.6596C43.8604 18.1906 43.2584 17.9561 42.4534 17.9561H41.6659V23.4161ZM47.2543 24.1301V17.2421H51.2233V17.9771H48.1258V20.1401H50.7403V20.8856H48.1258V23.3846H51.3283V24.1301H47.2543ZM52.0039 24.1301L54.0094 20.5706L52.1404 17.2421H53.1064L54.0409 19.0061C54.1319 19.1601 54.2159 19.3141 54.2929 19.4681C54.3769 19.6221 54.4714 19.8006 54.5764 20.0036H54.6184C54.7164 19.8006 54.8004 19.6221 54.8704 19.4681C54.9474 19.3141 55.0279 19.1601 55.1119 19.0061L56.0254 17.2421H56.9494L55.0699 20.6126L57.0754 24.1301H56.1094L55.1014 22.2716C55.0104 22.1036 54.9159 21.9321 54.8179 21.7571C54.7269 21.5751 54.6254 21.3791 54.5134 21.1691H54.4714C54.3734 21.3791 54.2789 21.5751 54.1879 21.7571C54.0969 21.9321 54.0094 22.1036 53.9254 22.2716L52.9279 24.1301H52.0039ZM59.3977 24.1301V17.9771H57.3187V17.2421H62.3587V17.9771H60.2797V24.1301H59.3977ZM64.8023 24.2561C64.3893 24.2561 64.0008 24.1511 63.6368 23.9411C63.2798 23.7311 62.9893 23.4266 62.7653 23.0276C62.5483 22.6286 62.4398 22.1491 62.4398 21.5891C62.4398 21.0151 62.5483 20.5286 62.7653 20.1296C62.9893 19.7306 63.2798 19.4261 63.6368 19.2161C64.0008 19.0061 64.3893 18.9011 64.8023 18.9011C65.2223 18.9011 65.6108 19.0061 65.9678 19.2161C66.3248 19.4261 66.6118 19.7306 66.8288 20.1296C67.0528 20.5286 67.1648 21.0151 67.1648 21.5891C67.1648 22.1491 67.0528 22.6286 66.8288 23.0276C66.6118 23.4266 66.3248 23.7311 65.9678 23.9411C65.6108 24.1511 65.2223 24.2561 64.8023 24.2561ZM64.8023 23.5421C65.2433 23.5421 65.5968 23.3636 65.8628 23.0066C66.1358 22.6426 66.2723 22.1701 66.2723 21.5891C66.2723 21.0011 66.1358 20.5251 65.8628 20.1611C65.5968 19.7971 65.2433 19.6151 64.8023 19.6151C64.3683 19.6151 64.0148 19.7971 63.7418 20.1611C63.4688 20.5251 63.3323 21.0011 63.3323 21.5891C63.3323 22.1701 63.4688 22.6426 63.7418 23.0066C64.0148 23.3636 64.3683 23.5421 64.8023 23.5421ZM70.4932 24.2561C70.0802 24.2561 69.6917 24.1511 69.3277 23.9411C68.9707 23.7311 68.6802 23.4266 68.4562 23.0276C68.2392 22.6286 68.1307 22.1491 68.1307 21.5891C68.1307 21.0151 68.2392 20.5286 68.4562 20.1296C68.6802 19.7306 68.9707 19.4261 69.3277 19.2161C69.6917 19.0061 70.0802 18.9011 70.4932 18.9011C70.9132 18.9011 71.3017 19.0061 71.6587 19.2161C72.0157 19.4261 72.3027 19.7306 72.5197 20.1296C72.7437 20.5286 72.8557 21.0151 72.8557 21.5891C72.8557 22.1491 72.7437 22.6286 72.5197 23.0276C72.3027 23.4266 72.0157 23.7311 71.6587 23.9411C71.3017 24.1511 70.9132 24.2561 70.4932 24.2561ZM70.4932 23.5421C70.9342 23.5421 71.2877 23.3636 71.5537 23.0066C71.8267 22.6426 71.9632 22.1701 71.9632 21.5891C71.9632 21.0011 71.8267 20.5251 71.5537 20.1611C71.2877 19.7971 70.9342 19.6151 70.4932 19.6151C70.0592 19.6151 69.7057 19.7971 69.4327 20.1611C69.1597 20.5251 69.0232 21.0011 69.0232 21.5891C69.0232 22.1701 69.1597 22.6426 69.4327 23.0066C69.7057 23.3636 70.0592 23.5421 70.4932 23.5421ZM75.1131 24.2561C74.7911 24.2561 74.5566 24.1581 74.4096 23.9621C74.2696 23.7591 74.1996 23.4721 74.1996 23.1011V16.6541H75.0606V23.1641C75.0606 23.2971 75.0851 23.3951 75.1341 23.4581C75.1831 23.5141 75.2391 23.5421 75.3021 23.5421C75.3301 23.5421 75.3546 23.5421 75.3756 23.5421C75.4036 23.5351 75.4421 23.5281 75.4911 23.5211L75.6066 24.1721C75.5506 24.2001 75.4841 24.2211 75.4071 24.2351C75.3301 24.2491 75.2321 24.2561 75.1131 24.2561ZM78.2094 24.2561C77.8454 24.2561 77.4989 24.1896 77.1699 24.0566C76.8409 23.9166 76.5539 23.7486 76.3089 23.5526L76.7394 22.9751C76.9634 23.1501 77.1944 23.2971 77.4324 23.4161C77.6704 23.5281 77.9399 23.5841 78.2409 23.5841C78.5769 23.5841 78.8289 23.5071 78.9969 23.3531C79.1649 23.1921 79.2489 23.0031 79.2489 22.7861C79.2489 22.6111 79.1894 22.4641 79.0704 22.3451C78.9584 22.2261 78.8114 22.1281 78.6294 22.0511C78.4544 21.9671 78.2724 21.8901 78.0834 21.8201C77.8454 21.7291 77.6109 21.6276 77.3799 21.5156C77.1489 21.3966 76.9599 21.2461 76.8129 21.0641C76.6659 20.8751 76.5924 20.6371 76.5924 20.3501C76.5924 19.9371 76.7464 19.5941 77.0544 19.3211C77.3694 19.0411 77.8034 18.9011 78.3564 18.9011C78.6714 18.9011 78.9654 18.9571 79.2384 19.0691C79.5114 19.1811 79.7459 19.3176 79.9419 19.4786L79.5219 20.0246C79.3469 19.8916 79.1649 19.7831 78.9759 19.6991C78.7869 19.6151 78.5804 19.5731 78.3564 19.5731C78.0344 19.5731 77.7964 19.6466 77.6424 19.7936C77.4954 19.9406 77.4219 20.1121 77.4219 20.3081C77.4219 20.4691 77.4744 20.6021 77.5794 20.7071C77.6844 20.8051 77.8209 20.8926 77.9889 20.9696C78.1569 21.0396 78.3354 21.1131 78.5244 21.1901C78.7694 21.2811 79.0109 21.3861 79.2489 21.5051C79.4869 21.6171 79.6829 21.7711 79.8369 21.9671C79.9979 22.1561 80.0784 22.4116 80.0784 22.7336C80.0784 23.0066 80.0049 23.2586 79.8579 23.4896C79.7179 23.7206 79.5079 23.9061 79.2279 24.0461C78.9549 24.1861 78.6154 24.2561 78.2094 24.2561ZM84.6474 20.2766L84.3219 21.3266H86.3904L86.0649 20.2766C85.9389 19.8916 85.8199 19.5101 85.7079 19.1321C85.5959 18.7471 85.4839 18.3551 85.3719 17.9561H85.3299C85.2249 18.3551 85.1164 18.7471 85.0044 19.1321C84.8924 19.5101 84.7734 19.8916 84.6474 20.2766ZM82.5474 24.1301L84.8784 17.2421H85.8654L88.1964 24.1301H87.2619L86.6109 22.0301H84.1014L83.4399 24.1301H82.5474ZM89.0883 26.2826V19.0271H89.8023L89.8758 19.6151H89.9073C90.1383 19.4191 90.3903 19.2511 90.6633 19.1111C90.9433 18.9711 91.2338 18.9011 91.5348 18.9011C92.1928 18.9011 92.6933 19.1391 93.0363 19.6151C93.3793 20.0841 93.5508 20.7141 93.5508 21.5051C93.5508 22.0791 93.4458 22.5726 93.2358 22.9856C93.0328 23.3986 92.7633 23.7136 92.4273 23.9306C92.0983 24.1476 91.7378 24.2561 91.3458 24.2561C91.1078 24.2561 90.8698 24.2036 90.6318 24.0986C90.4008 23.9936 90.1663 23.8501 89.9283 23.6681L89.9493 24.5606V26.2826H89.0883ZM91.1988 23.5316C91.6188 23.5316 91.9653 23.3531 92.2383 22.9961C92.5183 22.6321 92.6583 22.1351 92.6583 21.5051C92.6583 20.9451 92.5533 20.4936 92.3433 20.1506C92.1403 19.8006 91.7973 19.6256 91.3143 19.6256C91.0973 19.6256 90.8768 19.6851 90.6528 19.8041C90.4358 19.9231 90.2013 20.0946 89.9493 20.3186V22.9961C90.1803 23.1921 90.4043 23.3321 90.6213 23.4161C90.8383 23.4931 91.0308 23.5316 91.1988 23.5316ZM94.9125 26.2826V19.0271H95.6265L95.7 19.6151H95.7315C95.9625 19.4191 96.2145 19.2511 96.4875 19.1111C96.7675 18.9711 97.058 18.9011 97.359 18.9011C98.017 18.9011 98.5175 19.1391 98.8605 19.6151C99.2035 20.0841 99.375 20.7141 99.375 21.5051C99.375 22.0791 99.27 22.5726 99.06 22.9856C98.857 23.3986 98.5875 23.7136 98.2515 23.9306C97.9225 24.1476 97.562 24.2561 97.17 24.2561C96.932 24.2561 96.694 24.2036 96.456 24.0986C96.225 23.9936 95.9905 23.8501 95.7525 23.6681L95.7735 24.5606V26.2826H94.9125ZM97.023 23.5316C97.443 23.5316 97.7895 23.3531 98.0625 22.9961C98.3425 22.6321 98.4825 22.1351 98.4825 21.5051C98.4825 20.9451 98.3775 20.4936 98.1675 20.1506C97.9645 19.8006 97.6215 19.6256 97.1385 19.6256C96.9215 19.6256 96.701 19.6851 96.477 19.8041C96.26 19.9231 96.0255 20.0946 95.7735 20.3186V22.9961C96.0045 23.1921 96.2285 23.3321 96.4455 23.4161C96.6625 23.4931 96.855 23.5316 97.023 23.5316Z" fill="white"/>
<path d="M63.9719 31.2925C63.2265 31.2943 62.4984 31.517 61.8796 31.9326C61.2608 32.3482 60.7791 32.9379 60.4955 33.6272C60.2119 34.3165 60.139 35.0744 60.2862 35.8052C60.4333 36.5359 60.7938 37.2065 61.3221 37.7324C61.8504 38.2582 62.5228 38.6156 63.2542 38.7593C63.9856 38.903 64.7431 38.8265 65.4311 38.5397C66.1191 38.2528 66.7065 37.7684 67.1192 37.1477C67.5319 36.5269 67.7512 35.7978 67.7494 35.0524C67.7567 34.5552 67.6637 34.0615 67.4762 33.601C67.2887 33.1404 67.0104 32.7222 66.658 32.3714C66.3055 32.0206 65.8861 31.7443 65.4246 31.5589C64.9631 31.3736 64.4691 31.283 63.9719 31.2925ZM63.9719 37.3349C63.515 37.3668 63.0591 37.2606 62.6634 37.03C62.2677 36.7994 61.9505 36.4551 61.7531 36.0419C61.5557 35.6286 61.4872 35.1655 61.5564 34.7128C61.6257 34.2601 61.8295 33.8387 62.1414 33.5034C62.4534 33.168 62.859 32.9343 63.3055 32.8326C63.752 32.7308 64.2189 32.7657 64.6453 32.9328C65.0717 33.0999 65.438 33.3913 65.6966 33.7694C65.9551 34.1474 66.094 34.5944 66.0951 35.0524C66.1093 35.3426 66.0653 35.6327 65.9657 35.9056C65.866 36.1785 65.7128 36.4287 65.5149 36.6414C65.317 36.8542 65.0785 37.0251 64.8135 37.1442C64.5485 37.2633 64.2623 37.3281 63.9719 37.3349ZM55.7267 31.2925C54.9813 31.2943 54.2532 31.517 53.6344 31.9326C53.0156 32.3482 52.534 32.9379 52.2503 33.6272C51.9667 34.3165 51.8938 35.0744 52.041 35.8052C52.1881 36.5359 52.5486 37.2065 53.0769 37.7324C53.6052 38.2582 54.2776 38.6156 55.009 38.7593C55.7404 38.903 56.498 38.8265 57.1859 38.5397C57.8739 38.2528 58.4614 37.7684 58.874 37.1477C59.2867 36.5269 59.506 35.7978 59.5043 35.0524C59.5115 34.5552 59.4186 34.0615 59.231 33.601C59.0435 33.1404 58.7653 32.7222 58.4128 32.3714C58.0603 32.0206 57.6409 31.7443 57.1794 31.5589C56.7179 31.3736 56.2239 31.283 55.7267 31.2925ZM55.7267 37.3349C55.2698 37.3668 54.8139 37.2606 54.4182 37.03C54.0225 36.7994 53.7054 36.4551 53.5079 36.0419C53.3105 35.6286 53.242 35.1655 53.3112 34.7128C53.3805 34.2601 53.5843 33.8387 53.8963 33.5034C54.2082 33.168 54.6138 32.9343 55.0603 32.8326C55.5069 32.7308 55.9737 32.7657 56.4001 32.9328C56.8265 33.0999 57.1928 33.3913 57.4514 33.7694C57.7099 34.1474 57.8488 34.5944 57.8499 35.0524C57.8642 35.3426 57.8202 35.6327 57.7205 35.9056C57.6209 36.1785 57.4676 36.4287 57.2697 36.6414C57.0718 36.8542 56.8333 37.0251 56.5683 37.1442C56.3033 37.2633 56.0171 37.3281 55.7267 37.3349ZM45.9245 32.4515V34.0439H49.7463C49.6864 34.7939 49.3746 35.5016 48.8616 36.0521C48.4782 36.4427 48.0171 36.7484 47.5081 36.9496C46.9992 37.1508 46.4536 37.2428 45.9068 37.2199C44.7806 37.2199 43.7005 36.7725 42.9041 35.9761C42.1077 35.1797 41.6603 34.0996 41.6603 32.9734C41.6603 31.8472 42.1077 30.7671 42.9041 29.9707C43.7005 29.1744 44.7806 28.727 45.9068 28.727C46.9865 28.7109 48.029 29.1209 48.8085 29.8682L49.9321 28.7447C49.4048 28.2232 48.7787 27.8121 48.0906 27.5356C47.4024 27.2592 46.666 27.1228 45.9245 27.1346C45.138 27.1039 44.3534 27.2324 43.6178 27.5123C42.8822 27.7921 42.2106 28.2176 41.6433 28.7632C41.0761 29.3089 40.6248 29.9634 40.3165 30.6876C40.0083 31.4118 39.8494 32.1908 39.8494 32.9778C39.8494 33.7649 40.0083 34.5439 40.3165 35.2681C40.6248 35.9923 41.0761 36.6468 41.6433 37.1924C42.2106 37.738 42.8822 38.1635 43.6178 38.4434C44.3534 38.7233 45.138 38.8517 45.9245 38.8211C46.6813 38.8513 47.4359 38.7211 48.1387 38.4391C48.8416 38.157 49.4769 37.7294 50.0028 37.1845C50.9318 36.1639 51.4269 34.8217 51.3829 33.4423C51.3861 33.1103 51.3594 32.7787 51.3033 32.4515H45.9245ZM86.0091 33.69C85.7784 33.0112 85.347 32.4185 84.7719 31.9904C84.1969 31.5623 83.5054 31.3189 82.7889 31.2925C82.305 31.2916 81.826 31.3899 81.3816 31.5814C80.9372 31.7729 80.5368 32.0535 80.2051 32.4059C79.8735 32.7583 79.6176 33.175 79.4534 33.6302C79.2891 34.0854 79.22 34.5694 79.2502 35.0524C79.2427 35.86 79.4966 36.6483 79.974 37.2997C80.4514 37.9511 81.1268 38.4305 81.8992 38.6664C82.6716 38.9023 83.4995 38.882 84.2594 38.6085C85.0193 38.3351 85.6704 37.8231 86.1153 37.1491L84.8325 36.2644C84.6413 36.5831 84.3701 36.8463 84.0457 37.0279C83.7214 37.2095 83.3552 37.3031 82.9836 37.2995C82.6001 37.3153 82.2208 37.2148 81.8956 37.0111C81.5703 36.8074 81.3143 36.5101 81.1611 36.1582L86.1949 34.0793L86.0091 33.69ZM80.878 34.9462C80.8601 34.6714 80.8972 34.3958 80.9871 34.1355C81.077 33.8752 81.2179 33.6355 81.4017 33.4304C81.5854 33.2252 81.8082 33.0588 82.057 32.9408C82.3059 32.8229 82.5757 32.7558 82.8509 32.7434C83.1359 32.726 83.4197 32.7931 83.6668 32.9363C83.9139 33.0795 84.1132 33.2925 84.2398 33.5485L80.878 34.9462ZM76.7908 38.5911H78.4452V27.5327H76.7908V38.5911ZM74.0837 32.133H74.0218C73.7747 31.8515 73.4696 31.6268 73.1276 31.4741C72.7856 31.3214 72.4146 31.2444 72.0401 31.2483C71.0733 31.2952 70.1616 31.7122 69.494 32.413C68.8263 33.1138 68.4539 34.0447 68.4539 35.0126C68.4539 35.9805 68.8263 36.9113 69.494 37.6121C70.1616 38.3129 71.0733 38.73 72.0401 38.7769C72.4152 38.7844 72.7873 38.709 73.1298 38.5561C73.4724 38.4032 73.777 38.1765 74.0218 37.8922H74.0837V38.4319C74.0837 39.8739 73.314 40.6436 72.0755 40.6436C71.6618 40.6345 71.2601 40.5026 70.9214 40.2648C70.5827 40.0269 70.3224 39.6938 70.1734 39.3077L68.7403 39.9004C69.0052 40.5659 69.4659 41.1353 70.0614 41.5334C70.657 41.9315 71.3593 42.1394 72.0755 42.1298C74.0129 42.1298 75.6142 40.9886 75.6142 38.2107V31.5137H74.0837V32.133ZM72.1817 37.3349C71.602 37.2987 71.058 37.043 70.6603 36.6197C70.2626 36.1965 70.0412 35.6376 70.0412 35.0568C70.0412 34.4761 70.2626 33.9171 70.6603 33.4939C71.058 33.0707 71.602 32.8149 72.1817 32.7788C72.465 32.791 72.7429 32.8601 72.999 32.9819C73.255 33.1038 73.484 33.2759 73.6722 33.488C73.8603 33.7001 74.0039 33.9479 74.0944 34.2167C74.1849 34.4855 74.2203 34.7697 74.1987 35.0524C74.2229 35.3361 74.1892 35.6218 74.0998 35.8921C74.0104 36.1624 73.8671 36.4118 73.6785 36.6252C73.49 36.8385 73.2601 37.0114 73.0028 37.1334C72.7455 37.2554 72.4662 37.3239 72.1817 37.3349ZM93.7589 27.5327H89.7956V38.5911H91.4499V34.3977H93.7589C94.2304 34.4316 94.7038 34.368 95.1496 34.2108C95.5954 34.0537 96.0041 33.8064 96.3501 33.4843C96.6961 33.1623 96.9721 32.7724 97.1608 32.339C97.3495 31.9055 97.4469 31.4379 97.4469 30.9652C97.4469 30.4925 97.3495 30.0249 97.1608 29.5914C96.9721 29.158 96.6961 28.7681 96.3501 28.4461C96.0041 28.124 95.5954 27.8767 95.1496 27.7196C94.7038 27.5624 94.2304 27.4988 93.7589 27.5327ZM93.7589 32.8407H91.4499V29.072H93.7943C94.0429 29.072 94.2891 29.121 94.5188 29.2161C94.7485 29.3112 94.9572 29.4507 95.133 29.6265C95.3088 29.8023 95.4482 30.011 95.5434 30.2407C95.6385 30.4704 95.6875 30.7166 95.6875 30.9652C95.6875 31.2138 95.6385 31.46 95.5434 31.6897C95.4482 31.9194 95.3088 32.1281 95.133 32.3039C94.9572 32.4797 94.7485 32.6191 94.5188 32.7143C94.2891 32.8094 94.0429 32.8584 93.7943 32.8584L93.7589 32.8407ZM103.968 31.2571C103.366 31.22 102.765 31.3602 102.242 31.6606C101.718 31.9609 101.294 32.4081 101.022 32.9469L102.482 33.5573C102.629 33.2914 102.851 33.0738 103.119 32.931C103.388 32.7881 103.692 32.726 103.995 32.7522C104.205 32.7277 104.417 32.7453 104.621 32.8038C104.824 32.8624 105.013 32.9609 105.178 33.0935C105.343 33.2261 105.479 33.3901 105.58 33.5761C105.68 33.762 105.743 33.9662 105.764 34.1766V34.2827C105.232 34.0031 104.64 33.8573 104.039 33.8581C102.464 33.8581 100.854 34.7428 100.854 36.3529C100.87 36.6951 100.954 37.0307 101.102 37.3398C101.249 37.6488 101.458 37.925 101.714 38.152C101.971 38.3789 102.271 38.5519 102.596 38.6608C102.92 38.7697 103.264 38.8122 103.605 38.7857C104.02 38.8087 104.434 38.7208 104.804 38.5312C105.174 38.3415 105.487 38.0569 105.711 37.7064H105.764V38.5911H107.356V34.3358C107.356 32.3984 105.888 31.2748 104.003 31.2748L103.968 31.2571ZM103.765 37.3172C103.225 37.3172 102.473 37.0429 102.473 36.3794C102.473 35.4947 103.411 35.1939 104.242 35.1939C104.768 35.181 105.287 35.3093 105.746 35.5655C105.691 36.046 105.463 36.49 105.105 36.8153C104.747 37.1406 104.284 37.3252 103.8 37.3349L103.765 37.3172ZM113.16 31.5137L111.267 36.3086H111.214L109.25 31.5137H107.48L110.426 38.2195L108.745 41.944H110.47L115 31.5137H113.16ZM98.2973 38.5911H99.9428V27.5327H98.2973V38.5911Z" fill="white"/>
<defs>
<linearGradient id="paint0_linear_4073_22082" x1="23.662" y1="18.9173" x2="9.97078" y2="32.6085" gradientUnits="userSpaceOnUse">
<stop stop-color="#00A0FF"/>
<stop offset="0.01" stop-color="#00A1FF"/>
<stop offset="0.26" stop-color="#00BEFF"/>
<stop offset="0.51" stop-color="#00D2FF"/>
<stop offset="0.76" stop-color="#00DFFF"/>
<stop offset="1" stop-color="#00E3FF"/>
</linearGradient>
<linearGradient id="paint1_linear_4073_22082" x1="33.4776" y1="28.1291" x2="13.7404" y2="28.1291" gradientUnits="userSpaceOnUse">
<stop stop-color="#FFE000"/>
<stop offset="0.41" stop-color="#FFBD00"/>
<stop offset="0.78" stop-color="#FFA500"/>
<stop offset="1" stop-color="#FF9C00"/>
</linearGradient>
<linearGradient id="paint2_linear_4073_22082" x1="26.1342" y1="30.0058" x2="7.56376" y2="48.5681" gradientUnits="userSpaceOnUse">
<stop stop-color="#FF3A44"/>
<stop offset="1" stop-color="#C31162"/>
</linearGradient>
<linearGradient id="paint3_linear_4073_22082" x1="11.8311" y1="11.9575" x2="20.1209" y2="20.2473" gradientUnits="userSpaceOnUse">
<stop stop-color="#32A071"/>
<stop offset="0.07" stop-color="#2DA771"/>
<stop offset="0.48" stop-color="#15CF74"/>
<stop offset="0.8" stop-color="#06E775"/>
<stop offset="1" stop-color="#00F076"/>
</linearGradient>
</defs>
</svg>
